<?xml version="1.0" encoding="UTF-8"?>
<svg width="771px" height="547px" viewBox="0 0 771 547" version="1.1" xmlns="http://www.w3.org/2000/svg" xmlns:xlink="http://www.w3.org/1999/xlink">
    <!-- Generator: Sketch 59.1 (86144) - https://sketch.com -->
    <title>security 2</title>
    <desc>Created with Sketch.</desc>
    <defs>
        <linearGradient x1="50.0003172%" y1="100%" x2="50.0003172%" y2="-11.2805692%" id="linearGradient-1">
            <stop stop-color="#7700BB" offset="0%"></stop>
            <stop stop-color="#00008B" offset="52.41%"></stop>
            <stop stop-color="#00003B" offset="100%"></stop>
        </linearGradient>
        <linearGradient x1="59.4327642%" y1="3.10206797%" x2="39.7160184%" y2="101.141915%" id="linearGradient-2">
            <stop stop-color="#88CFDA" offset="0%"></stop>
            <stop stop-color="#89CFD9" offset="0.8341312%"></stop>
            <stop stop-color="#C8D9BB" offset="47.84%"></stop>
            <stop stop-color="#F0DFA7" offset="82.18%"></stop>
            <stop stop-color="#FFE1A0" offset="100%"></stop>
        </linearGradient>
        <linearGradient x1="-0.00156333857%" y1="50.0003326%" x2="99.9997373%" y2="50.0003326%" id="linearGradient-3">
            <stop stop-color="#7700BB" offset="0%"></stop>
            <stop stop-color="#00008B" offset="100%"></stop>
            <stop stop-color="#000000" offset="100%"></stop>
        </linearGradient>
        <linearGradient x1="20.0468984%" y1="38.6217544%" x2="78.9133117%" y2="41.7483053%" id="linearGradient-4">
            <stop stop-color="#DF27C9" offset="0%"></stop>
            <stop stop-color="#251F9E" offset="51.2781484%"></stop>
            <stop stop-color="#004FDA" offset="100%"></stop>
        </linearGradient>
        <linearGradient x1="0.0103446942%" y1="49.996587%" x2="100.00625%" y2="49.996587%" id="linearGradient-5">
            <stop stop-color="#7700BB" offset="0%"></stop>
            <stop stop-color="#00008B" offset="100%"></stop>
            <stop stop-color="#000000" offset="100%"></stop>
        </linearGradient>
        <linearGradient x1="0.0114457783%" y1="50.0424366%" x2="99.9933017%" y2="50.0424366%" id="linearGradient-6">
            <stop stop-color="#7A9FFF" offset="0%"></stop>
            <stop stop-color="#FFFFFF" offset="78.61%"></stop>
        </linearGradient>
        <linearGradient x1="-0.00107172889%" y1="50.0424366%" x2="99.9813201%" y2="50.0424366%" id="linearGradient-7">
            <stop stop-color="#7A9FFF" offset="0%"></stop>
            <stop stop-color="#FFFFFF" offset="78.61%"></stop>
        </linearGradient>
        <linearGradient x1="82.417357%" y1="50%" x2="10.9615782%" y2="50%" id="linearGradient-8">
            <stop stop-color="#0549D2" offset="0%"></stop>
            <stop stop-color="#EC53EF" offset="100%"></stop>
        </linearGradient>
        <linearGradient x1="0.00224930037%" y1="50.0003326%" x2="100.003069%" y2="50.0003326%" id="linearGradient-9">
            <stop stop-color="#88CFDA" offset="0%"></stop>
            <stop stop-color="#89CFD9" offset="0.8341312%"></stop>
            <stop stop-color="#C8D9BB" offset="47.84%"></stop>
            <stop stop-color="#F0DFA7" offset="82.18%"></stop>
            <stop stop-color="#FFE1A0" offset="100%"></stop>
        </linearGradient>
        <linearGradient x1="0.000130899548%" y1="49.997239%" x2="100.00364%" y2="49.997239%" id="linearGradient-10">
            <stop stop-color="#000000" offset="0%"></stop>
            <stop stop-color="#00008B" offset="100%"></stop>
            <stop stop-color="#000000" offset="100%"></stop>
        </linearGradient>
        <linearGradient x1="81.9669438%" y1="52.9948219%" x2="19.6759029%" y2="48.5522451%" id="linearGradient-11">
            <stop stop-color="#000000" offset="0%"></stop>
            <stop stop-color="#00008B" offset="100%"></stop>
            <stop stop-color="#000000" offset="100%"></stop>
        </linearGradient>
        <linearGradient x1="49.9742999%" y1="101.725385%" x2="49.9742999%" y2="3.8436425%" id="linearGradient-12">
            <stop stop-color="#009AFF" offset="0%"></stop>
            <stop stop-color="#AEFFFF" offset="78.61%"></stop>
        </linearGradient>
        <linearGradient x1="0.0115164764%" y1="50.0202501%" x2="100.034893%" y2="50.0202501%" id="linearGradient-13">
            <stop stop-color="#7A9FFF" offset="0%"></stop>
            <stop stop-color="#FFFFFF" offset="78.61%"></stop>
        </linearGradient>
        <linearGradient x1="0.00957239947%" y1="49.9949874%" x2="100.032259%" y2="49.9949874%" id="linearGradient-14">
            <stop stop-color="#311A70" offset="0%"></stop>
            <stop stop-color="#639DDB" offset="100%"></stop>
        </linearGradient>
        <linearGradient x1="-0.0289369479%" y1="50.0145329%" x2="99.9905574%" y2="50.0145329%" id="linearGradient-15">
            <stop stop-color="#311A70" offset="0%"></stop>
            <stop stop-color="#639DDB" offset="100%"></stop>
        </linearGradient>
        <linearGradient x1="-0.00081799591%" y1="50.0056472%" x2="100.000273%" y2="50.0056472%" id="linearGradient-16">
            <stop stop-color="#7A9FFF" offset="0%"></stop>
            <stop stop-color="#FFFFFF" offset="78.61%"></stop>
        </linearGradient>
        <linearGradient x1="0.00940193262%" y1="49.989561%" x2="100.007051%" y2="49.989561%" id="linearGradient-17">
            <stop stop-color="#3633B8" offset="0%"></stop>
            <stop stop-color="#FFFFFF" offset="78.61%"></stop>
        </linearGradient>
        <linearGradient x1="51.9205824%" y1="-0.194876421%" x2="47.6522339%" y2="75.7901071%" id="linearGradient-18">
            <stop stop-color="#7A9FFF" offset="0%"></stop>
            <stop stop-color="#FFFFFF" offset="78.61%"></stop>
        </linearGradient>
        <linearGradient x1="65.4738555%" y1="29.0401165%" x2="34.1404151%" y2="66.740884%" id="linearGradient-19">
            <stop stop-color="#009AFF" offset="0%"></stop>
            <stop stop-color="#AEFFFF" offset="78.61%"></stop>
        </linearGradient>
        <linearGradient x1="58.9181266%" y1="48.930056%" x2="43.6952882%" y2="55.9498428%" id="linearGradient-20">
            <stop stop-color="#009AFF" offset="0%"></stop>
            <stop stop-color="#AEFFFF" offset="78.61%"></stop>
        </linearGradient>
        <linearGradient x1="0.0227963115%" y1="50.0162987%" x2="100.047934%" y2="50.0162987%" id="linearGradient-21">
            <stop stop-color="#7A9FFF" offset="0%"></stop>
            <stop stop-color="#FFFFFF" offset="78.61%"></stop>
        </linearGradient>
        <linearGradient x1="-0.00252347522%" y1="50.0111151%" x2="100.022987%" y2="50.0111151%" id="linearGradient-22">
            <stop stop-color="#311A70" offset="0%"></stop>
            <stop stop-color="#639DDB" offset="100%"></stop>
        </linearGradient>
        <linearGradient x1="-0.00239005988%" y1="50.0271764%" x2="99.9966909%" y2="50.0271764%" id="linearGradient-23">
            <stop stop-color="#311A70" offset="0%"></stop>
            <stop stop-color="#639DDB" offset="100%"></stop>
        </linearGradient>
        <linearGradient x1="124.332984%" y1="9.5215208%" x2="-5.45113372%" y2="94.2083931%" id="linearGradient-24">
            <stop stop-color="#3633B8" offset="0%"></stop>
            <stop stop-color="#FFFFFF" offset="78.61%"></stop>
        </linearGradient>
        <linearGradient x1="0.0247655686%" y1="49.99426%" x2="100.023804%" y2="49.99426%" id="linearGradient-25">
            <stop stop-color="#311A70" offset="0%"></stop>
            <stop stop-color="#639DDB" offset="100%"></stop>
        </linearGradient>
        <linearGradient x1="0.00276327909%" y1="50.0061965%" x2="99.9950875%" y2="50.0061965%" id="linearGradient-26">
            <stop stop-color="#7A9FFF" offset="0%"></stop>
            <stop stop-color="#FFFFFF" offset="78.61%"></stop>
        </linearGradient>
        <linearGradient x1="-0.00291562961%" y1="50.0042637%" x2="100.000794%" y2="50.0042637%" id="linearGradient-27">
            <stop stop-color="#88CFDA" offset="0%"></stop>
            <stop stop-color="#89CFD9" offset="0.8341312%"></stop>
            <stop stop-color="#C8D9BB" offset="47.84%"></stop>
            <stop stop-color="#F0DFA7" offset="82.18%"></stop>
            <stop stop-color="#FFE1A0" offset="100%"></stop>
        </linearGradient>
        <linearGradient x1="66.0908245%" y1="46.204438%" x2="47.3445959%" y2="50.1237911%" id="linearGradient-28">
            <stop stop-color="#88CFDA" offset="0%"></stop>
            <stop stop-color="#89CFD9" offset="0.8341312%"></stop>
            <stop stop-color="#C8D9BB" offset="47.84%"></stop>
            <stop stop-color="#F0DFA7" offset="82.18%"></stop>
            <stop stop-color="#FFE1A0" offset="100%"></stop>
        </linearGradient>
        <linearGradient x1="50.0152596%" y1="14.3354305%" x2="50.0152596%" y2="97.7904745%" id="linearGradient-29">
            <stop stop-color="#241A36" offset="0%"></stop>
            <stop stop-color="#8625DB" offset="100%"></stop>
        </linearGradient>
        <linearGradient x1="74.6576259%" y1="2.65953777%" x2="18.4527559%" y2="128.952397%" id="linearGradient-30">
            <stop stop-color="#7A9FFF" offset="0%"></stop>
            <stop stop-color="#FFFFFF" offset="78.61%"></stop>
        </linearGradient>
        <linearGradient x1="42.3981503%" y1="16.0731173%" x2="101.262035%" y2="108.586225%" id="linearGradient-31">
            <stop stop-color="#7A9FFF" offset="0%"></stop>
            <stop stop-color="#FFFFFF" offset="78.61%"></stop>
        </linearGradient>
        <linearGradient x1="100.015836%" y1="49.9836939%" x2="0.0520700261%" y2="49.9836939%" id="linearGradient-32">
            <stop stop-color="#311A70" offset="0%"></stop>
            <stop stop-color="#81CAE0" offset="100%"></stop>
        </linearGradient>
        <linearGradient x1="63.4262432%" y1="23.3821023%" x2="34.2344878%" y2="108.731999%" id="linearGradient-33">
            <stop stop-color="#31064C" offset="0%"></stop>
            <stop stop-color="#639DDB" offset="100%"></stop>
        </linearGradient>
        <linearGradient x1="99.9916326%" y1="50.027367%" x2="0.0016493535%" y2="50.027367%" id="linearGradient-34">
            <stop stop-color="#270036" offset="0%"></stop>
            <stop stop-color="#4F008B" offset="59.36%"></stop>
            <stop stop-color="#4C24B1" offset="100%"></stop>
        </linearGradient>
        <linearGradient x1="70.0454298%" y1="90.7340881%" x2="14.4333447%" y2="7.250306%" id="linearGradient-35">
            <stop stop-color="#311A70" offset="0%"></stop>
            <stop stop-color="#81CAE0" offset="100%"></stop>
        </linearGradient>
        <linearGradient x1="82.059334%" y1="90.3916753%" x2="-17.4030866%" y2="8.18185486%" id="linearGradient-36">
            <stop stop-color="#4A74BF" offset="0%"></stop>
            <stop stop-color="#FFFFFF" offset="78.61%"></stop>
        </linearGradient>
        <linearGradient x1="87.1482713%" y1="80.7405597%" x2="6.81345514%" y2="-1.85672371%" id="linearGradient-37">
            <stop stop-color="#4A74BF" offset="0%"></stop>
            <stop stop-color="#FFFFFF" offset="78.61%"></stop>
        </linearGradient>
        <linearGradient x1="100.007535%" y1="50.0175474%" x2="0.0414746671%" y2="50.0175474%" id="linearGradient-38">
            <stop stop-color="#31064C" offset="0%"></stop>
            <stop stop-color="#639DDB" offset="100%"></stop>
        </linearGradient>
        <linearGradient x1="100.001896%" y1="49.9410175%" x2="0.0193737621%" y2="49.9410175%" id="linearGradient-39">
            <stop stop-color="#270036" offset="0%"></stop>
            <stop stop-color="#4F008B" offset="59.36%"></stop>
            <stop stop-color="#4C24B1" offset="100%"></stop>
        </linearGradient>
        <linearGradient x1="-0.0280196895%" y1="50.0058285%" x2="99.994699%" y2="50.0058285%" id="linearGradient-40">
            <stop stop-color="#311A70" offset="0%"></stop>
            <stop stop-color="#639DDB" offset="100%"></stop>
        </linearGradient>
        <linearGradient x1="70.2794118%" y1="57.2807315%" x2="20.7785205%" y2="32.1728677%" id="linearGradient-41">
            <stop stop-color="#3633B8" offset="0%"></stop>
            <stop stop-color="#FFFFFF" offset="78.61%"></stop>
        </linearGradient>
        <linearGradient x1="36.5388385%" y1="9.73977661%" x2="56.3914101%" y2="100.105243%" id="linearGradient-42">
            <stop stop-color="#7A9FFF" offset="0%"></stop>
            <stop stop-color="#FFFFFF" offset="78.61%"></stop>
        </linearGradient>
        <linearGradient x1="92.6703855%" y1="64.2961672%" x2="-0.0104569694%" y2="38.8364756%" id="linearGradient-43">
            <stop stop-color="#311A70" offset="0%"></stop>
            <stop stop-color="#639DDB" offset="100%"></stop>
        </linearGradient>
        <linearGradient x1="90.2503481%" y1="56.3685019%" x2="-1.06623867%" y2="38.4500217%" id="linearGradient-44">
            <stop stop-color="#7A9FFF" offset="0%"></stop>
            <stop stop-color="#FFFFFF" offset="78.61%"></stop>
        </linearGradient>
        <linearGradient x1="96.4899818%" y1="54.4868358%" x2="6.81651282%" y2="45.6132091%" id="linearGradient-45">
            <stop stop-color="#7A9FFF" offset="0%"></stop>
            <stop stop-color="#FFFFFF" offset="78.61%"></stop>
        </linearGradient>
        <linearGradient x1="-2.47503551%" y1="74.8268031%" x2="85.5721758%" y2="32.5552344%" id="linearGradient-46">
            <stop stop-color="#3633B8" offset="0%"></stop>
            <stop stop-color="#FFFFFF" offset="78.61%"></stop>
        </linearGradient>
        <linearGradient x1="97.2144053%" y1="58.3509973%" x2="2.70476269%" y2="42.8726487%" id="linearGradient-47">
            <stop stop-color="#7A9FFF" offset="0%"></stop>
            <stop stop-color="#FFFFFF" offset="78.61%"></stop>
        </linearGradient>
        <linearGradient x1="91.9874992%" y1="55.2521362%" x2="7.98582636%" y2="46.3288134%" id="linearGradient-48">
            <stop stop-color="#7A9FFF" offset="0%"></stop>
            <stop stop-color="#FFFFFF" offset="78.61%"></stop>
        </linearGradient>
        <linearGradient x1="100.098556%" y1="59.8162217%" x2="0.617479729%" y2="40.2772485%" id="linearGradient-49">
            <stop stop-color="#7A9FFF" offset="0%"></stop>
            <stop stop-color="#FFFFFF" offset="78.61%"></stop>
        </linearGradient>
        <linearGradient x1="99.9984666%" y1="60.7042088%" x2="-0.564282505%" y2="38.8969373%" id="linearGradient-50">
            <stop stop-color="#7A9FFF" offset="0%"></stop>
            <stop stop-color="#FFFFFF" offset="78.61%"></stop>
        </linearGradient>
        <linearGradient x1="89.5501286%" y1="54.2413193%" x2="5.93248109%" y2="30.1552839%" id="linearGradient-51">
            <stop stop-color="#7A9FFF" offset="0%"></stop>
            <stop stop-color="#FFFFFF" offset="78.61%"></stop>
        </linearGradient>
        <linearGradient x1="75.8907802%" y1="58.3212932%" x2="30.4061922%" y2="37.4782751%" id="linearGradient-52">
            <stop stop-color="#7A9FFF" offset="0%"></stop>
            <stop stop-color="#FFFFFF" offset="78.61%"></stop>
        </linearGradient>
        <linearGradient x1="5.20721801%" y1="5.50785812%" x2="67.1956581%" y2="90.8792761%" id="linearGradient-53">
            <stop stop-color="#311A70" offset="0%"></stop>
            <stop stop-color="#639DDB" offset="100%"></stop>
        </linearGradient>
        <linearGradient x1="88.0596414%" y1="64.1389166%" x2="21.172578%" y2="43.5044437%" id="linearGradient-54">
            <stop stop-color="#7A9FFF" offset="0%"></stop>
            <stop stop-color="#FFFFFF" offset="78.61%"></stop>
        </linearGradient>
        <linearGradient x1="94.8692602%" y1="68.0381777%" x2="-4.0114114%" y2="40.9863116%" id="linearGradient-55">
            <stop stop-color="#7A9FFF" offset="0%"></stop>
            <stop stop-color="#FFFFFF" offset="78.61%"></stop>
        </linearGradient>
        <linearGradient x1="53.1406551%" y1="103.308659%" x2="46.7955269%" y2="-0.0659284948%" id="linearGradient-56">
            <stop stop-color="#009AFF" offset="0%"></stop>
            <stop stop-color="#AEFFFF" offset="78.61%"></stop>
        </linearGradient>
        <linearGradient x1="61.1612351%" y1="59.436802%" x2="39.1448249%" y2="49.3472367%" id="linearGradient-57">
            <stop stop-color="#1DACFF" offset="0%"></stop>
            <stop stop-color="#378FD9" offset="16.11%"></stop>
            <stop stop-color="#5073B4" offset="34.36%"></stop>
            <stop stop-color="#5F629D" offset="49.15%"></stop>
            <stop stop-color="#655C95" offset="58.53%"></stop>
            <stop stop-color="#6F5F91" offset="63.67%"></stop>
            <stop stop-color="#896886" offset="72.3%"></stop>
            <stop stop-color="#B37774" offset="83.36%"></stop>
            <stop stop-color="#ED8C5C" offset="96.28%"></stop>
            <stop stop-color="#FF9254" offset="100%"></stop>
        </linearGradient>
        <linearGradient x1="61.1546719%" y1="59.436802%" x2="39.1406%" y2="49.3483083%" id="linearGradient-58">
            <stop stop-color="#7633FF" offset="0%"></stop>
            <stop stop-color="#7137FF" offset="15.85%"></stop>
            <stop stop-color="#6243FF" offset="35.35%"></stop>
            <stop stop-color="#4957FF" offset="56.76%"></stop>
            <stop stop-color="#2672FF" offset="79.37%"></stop>
            <stop stop-color="#0090FF" offset="100%"></stop>
        </linearGradient>
        <linearGradient x1="61.5375431%" y1="45.1480136%" x2="42.517351%" y2="60.4111141%" id="linearGradient-59">
            <stop stop-color="#311A70" offset="0%"></stop>
            <stop stop-color="#639DDB" offset="100%"></stop>
        </linearGradient>
        <linearGradient x1="54.6888197%" y1="48.017609%" x2="41.9144504%" y2="52.7193263%" id="linearGradient-60">
            <stop stop-color="#7A9FFF" offset="0%"></stop>
            <stop stop-color="#FFFFFF" offset="78.61%"></stop>
        </linearGradient>
        <linearGradient x1="77.0256943%" y1="9.83253962%" x2="23.219254%" y2="111.492955%" id="linearGradient-61">
            <stop stop-color="#7A9FFF" offset="0%"></stop>
            <stop stop-color="#FFFFFF" offset="78.61%"></stop>
        </linearGradient>
        <linearGradient x1="49.9960347%" y1="14.3346396%" x2="49.9960347%" y2="97.7940789%" id="linearGradient-62">
            <stop stop-color="#241A36" offset="0%"></stop>
            <stop stop-color="#8625DB" offset="100%"></stop>
        </linearGradient>
        <linearGradient x1="25.318141%" y1="2.65436357%" x2="81.5230109%" y2="128.947223%" id="linearGradient-63">
            <stop stop-color="#7A9FFF" offset="0%"></stop>
            <stop stop-color="#FFFFFF" offset="78.61%"></stop>
        </linearGradient>
        <linearGradient x1="55.8880469%" y1="21.1758106%" x2="1.96162308%" y2="110.518575%" id="linearGradient-64">
            <stop stop-color="#7A9FFF" offset="0%"></stop>
            <stop stop-color="#FFFFFF" offset="78.61%"></stop>
        </linearGradient>
        <linearGradient x1="-0.0154921202%" y1="49.9871536%" x2="99.9486185%" y2="49.9871536%" id="linearGradient-65">
            <stop stop-color="#311A70" offset="0%"></stop>
            <stop stop-color="#81CAE0" offset="100%"></stop>
        </linearGradient>
        <linearGradient x1="73.0381847%" y1="67.3937598%" x2="41.1100263%" y2="45.668079%" id="linearGradient-66">
            <stop stop-color="#31064C" offset="0%"></stop>
            <stop stop-color="#639DDB" offset="100%"></stop>
        </linearGradient>
        <linearGradient x1="0.00885964763%" y1="49.9864429%" x2="99.9988428%" y2="49.9864429%" id="linearGradient-67">
            <stop stop-color="#270036" offset="0%"></stop>
            <stop stop-color="#4F008B" offset="59.36%"></stop>
            <stop stop-color="#4C24B1" offset="100%"></stop>
        </linearGradient>
        <linearGradient x1="13.369202%" y1="83.4801102%" x2="76.8727285%" y2="41.2365361%" id="linearGradient-68">
            <stop stop-color="#311A70" offset="0%"></stop>
            <stop stop-color="#81CAE0" offset="100%"></stop>
        </linearGradient>
        <linearGradient x1="17.8952379%" y1="90.400819%" x2="117.362359%" y2="8.18287293%" id="linearGradient-69">
            <stop stop-color="#4A74BF" offset="0%"></stop>
            <stop stop-color="#FFFFFF" offset="78.61%"></stop>
        </linearGradient>
        <linearGradient x1="12.8520489%" y1="80.7452316%" x2="93.1868651%" y2="-1.85171814%" id="linearGradient-70">
            <stop stop-color="#4A74BF" offset="0%"></stop>
            <stop stop-color="#FFFFFF" offset="78.61%"></stop>
        </linearGradient>
        <linearGradient x1="55.7388589%" y1="44.0395321%" x2="33.1090545%" y2="52.5601049%" id="linearGradient-71">
            <stop stop-color="#31064C" offset="0%"></stop>
            <stop stop-color="#639DDB" offset="100%"></stop>
        </linearGradient>
        <linearGradient x1="-0.00189580501%" y1="49.9482243%" x2="99.9808746%" y2="49.9482243%" id="linearGradient-72">
            <stop stop-color="#270036" offset="0%"></stop>
            <stop stop-color="#4F008B" offset="59.36%"></stop>
            <stop stop-color="#4C24B1" offset="100%"></stop>
        </linearGradient>
        <linearGradient x1="0.0025776485%" y1="50.0049477%" x2="99.9955551%" y2="50.0049477%" id="linearGradient-73">
            <stop stop-color="#311A70" offset="0%"></stop>
            <stop stop-color="#639DDB" offset="100%"></stop>
        </linearGradient>
        <linearGradient x1="-0.00940403003%" y1="50.0153966%" x2="99.9950211%" y2="50.0153966%" id="linearGradient-74">
            <stop stop-color="#7A9FFF" offset="0%"></stop>
            <stop stop-color="#FFFFFF" offset="78.61%"></stop>
        </linearGradient>
        <linearGradient x1="-0.0281734726%" y1="49.969464%" x2="99.9740424%" y2="49.969464%" id="linearGradient-75">
            <stop stop-color="#7A9FFF" offset="0%"></stop>
            <stop stop-color="#FFFFFF" offset="78.61%"></stop>
        </linearGradient>
        <linearGradient x1="74.7766865%" y1="71.3918265%" x2="-11.4667575%" y2="2.50986681%" id="linearGradient-76">
            <stop stop-color="#3633B8" offset="0%"></stop>
            <stop stop-color="#FFFFFF" offset="78.61%"></stop>
        </linearGradient>
        <linearGradient x1="-0.0324374421%" y1="49.9970905%" x2="99.9425394%" y2="49.9970905%" id="linearGradient-77">
            <stop stop-color="#7A9FFF" offset="0%"></stop>
            <stop stop-color="#FFFFFF" offset="78.61%"></stop>
        </linearGradient>
        <linearGradient x1="-0.0152565881%" y1="49.9704211%" x2="100.055479%" y2="49.9704211%" id="linearGradient-78">
            <stop stop-color="#7A9FFF" offset="0%"></stop>
            <stop stop-color="#FFFFFF" offset="78.61%"></stop>
        </linearGradient>
        <linearGradient x1="0.0420315236%" y1="50.0185387%" x2="100.016637%" y2="50.0185387%" id="linearGradient-79">
            <stop stop-color="#7A9FFF" offset="0%"></stop>
            <stop stop-color="#FFFFFF" offset="78.61%"></stop>
        </linearGradient>
        <linearGradient x1="0.0237868696%" y1="49.9988852%" x2="99.9923882%" y2="49.9988852%" id="linearGradient-80">
            <stop stop-color="#7A9FFF" offset="0%"></stop>
            <stop stop-color="#FFFFFF" offset="78.61%"></stop>
        </linearGradient>
        <linearGradient x1="0.0323737708%" y1="49.9726449%" x2="100.093813%" y2="49.9726449%" id="linearGradient-81">
            <stop stop-color="#7A9FFF" offset="0%"></stop>
            <stop stop-color="#FFFFFF" offset="78.61%"></stop>
        </linearGradient>
        <linearGradient x1="-0.0404980149%" y1="50%" x2="99.9302646%" y2="50%" id="linearGradient-82">
            <stop stop-color="#7A9FFF" offset="0%"></stop>
            <stop stop-color="#FFFFFF" offset="78.61%"></stop>
        </linearGradient>
        <linearGradient x1="129.326045%" y1="17.8140238%" x2="23.6979831%" y2="84.7175728%" id="linearGradient-83">
            <stop stop-color="#311A70" offset="0%"></stop>
            <stop stop-color="#639DDB" offset="100%"></stop>
        </linearGradient>
        <linearGradient x1="-0.0421719499%" y1="50.0752073%" x2="100.024221%" y2="50.0752073%" id="linearGradient-84">
            <stop stop-color="#7A9FFF" offset="0%"></stop>
            <stop stop-color="#FFFFFF" offset="78.61%"></stop>
        </linearGradient>
        <linearGradient x1="-0.0107526882%" y1="49.9804454%" x2="100.0553%" y2="49.9804454%" id="linearGradient-85">
            <stop stop-color="#7A9FFF" offset="0%"></stop>
            <stop stop-color="#FFFFFF" offset="78.61%"></stop>
        </linearGradient>
        <linearGradient x1="38.3007788%" y1="102.945548%" x2="61.4895224%" y2="-0.0986440921%" id="linearGradient-86">
            <stop stop-color="#009AFF" offset="0%"></stop>
            <stop stop-color="#AEFFFF" offset="78.61%"></stop>
        </linearGradient>
        <linearGradient x1="43.1118242%" y1="51.4009449%" x2="57.4919082%" y2="49.6496789%" id="linearGradient-87">
            <stop stop-color="#1DACFF" offset="0%"></stop>
            <stop stop-color="#378FD9" offset="16.11%"></stop>
            <stop stop-color="#5073B4" offset="34.36%"></stop>
            <stop stop-color="#5F629D" offset="49.15%"></stop>
            <stop stop-color="#655C95" offset="58.53%"></stop>
            <stop stop-color="#6F5F91" offset="63.67%"></stop>
            <stop stop-color="#896886" offset="72.3%"></stop>
            <stop stop-color="#B37774" offset="83.36%"></stop>
            <stop stop-color="#ED8C5C" offset="96.28%"></stop>
            <stop stop-color="#FF9254" offset="100%"></stop>
        </linearGradient>
        <linearGradient x1="-0.0466702567%" y1="49.9979396%" x2="100.002298%" y2="49.9979396%" id="linearGradient-88">
            <stop stop-color="#7633FF" offset="0%"></stop>
            <stop stop-color="#7137FF" offset="15.85%"></stop>
            <stop stop-color="#6243FF" offset="35.35%"></stop>
            <stop stop-color="#4957FF" offset="56.76%"></stop>
            <stop stop-color="#2672FF" offset="79.37%"></stop>
            <stop stop-color="#0090FF" offset="100%"></stop>
        </linearGradient>
        <linearGradient x1="44.705101%" y1="43.4677358%" x2="53.3978038%" y2="61.4995846%" id="linearGradient-89">
            <stop stop-color="#311A70" offset="0%"></stop>
            <stop stop-color="#639DDB" offset="100%"></stop>
        </linearGradient>
        <linearGradient x1="47.8528162%" y1="47.3606982%" x2="53.6909316%" y2="53.3432153%" id="linearGradient-90">
            <stop stop-color="#7A9FFF" offset="0%"></stop>
            <stop stop-color="#FFFFFF" offset="78.61%"></stop>
        </linearGradient>
    </defs>
    <g id="Page-1" stroke="none" stroke-width="1" fill="none" fill-rule="evenodd">
        <g id="security-2" fill-rule="nonzero">
            <g id="security">
                <g id="Group">
                    <path d="M736.79,542.13 C736.79,542.13 817.58,437.82 728.12,348.4 C670.2,290.51 652.46,278.79 645.38,248.5 C630.16,183.34 574.6,0.24 412.97,0.24 C139.75,0.24 117.17,281.09 117.17,281.09 C117.17,281.09 38.99,296.14 9.88,399.71 C-17.7,497.85 21.44,546.95 21.44,546.95 L736.79,542.13 Z" id="Path" fill="url(#linearGradient-1)"></path>
                    <g transform="translate(259.000000, 25.000000)">
                        <g fill="#FFFFFF">
                            <circle id="Oval" cx="114.53" cy="2.86" r="1.87"></circle>
                            <path d="M182.47,59.01 C182.47,59.52 182.06,59.93 181.55,59.93 C181.04,59.93 180.63,59.52 180.63,59.01 C180.63,58.5 181.04,58.09 181.55,58.09 C182.06,58.09 182.47,58.5 182.47,59.01 Z" id="Path"></path>
                            <path d="M72.43,74.82 C72.43,76.22 71.3,77.35 69.9,77.35 C68.5,77.35 67.37,76.22 67.37,74.82 C67.37,73.42 68.5,72.29 69.9,72.29 C71.29,72.29 72.43,73.43 72.43,74.82 Z" id="Path"></path>
                            <path d="M4.53,63.07 C4.53,64.14 3.66,65.01 2.59,65.01 C1.52,65.01 0.65,64.14 0.65,63.07 C0.65,62 1.52,61.13 2.59,61.13 C3.66,61.12 4.53,61.99 4.53,63.07 Z" id="Path"></path>
                            <path d="M174.28,7.81 C174.28,8.79 173.49,9.58 172.51,9.58 C171.53,9.58 170.74,8.79 170.74,7.81 C170.74,6.83 171.53,6.04 172.51,6.04 C173.48,6.04 174.28,6.84 174.28,7.81 Z" id="Path"></path>
                        </g>
                        <path d="M210.88,73.59 C225.11,87.89 248.24,87.95 262.54,73.72 C276.84,59.49 276.9,36.37 262.67,22.06 C248.44,7.76 225.31,7.7 211.01,21.93 C196.71,36.16 196.65,59.29 210.88,73.59 Z" id="moon_3_" fill="url(#linearGradient-2)"></path>
                    </g>
                </g>
                <g id="Group" transform="translate(203.000000, 53.000000)">
                    <g id="Path">
                        <path d="M372.94,90.81 L187.42,0.28 L186.54,0.28 L1.02,90.81 C1.02,90.81 -0.66,172.4 4.93,216.54 C11.14,265.58 35.11,360.15 90.43,416.59 C145.75,473.03 186.54,481.41 186.54,481.41 L187.42,481.41 C187.42,481.41 228.21,473.03 283.53,416.59 C338.85,360.15 362.82,265.58 369.03,216.54 C374.62,172.39 372.94,90.81 372.94,90.81 Z" fill="url(#linearGradient-3)"></path>
                        <path d="M340.94,109.06 L185.36,33.14 L184.62,33.14 L29.04,109.06 C29.04,109.06 27.63,177.48 32.32,214.5 C37.53,255.63 57.63,334.94 104.02,382.27 C150.41,429.6 184.62,436.63 184.62,436.63 L185.36,436.63 C185.36,436.63 219.57,429.6 265.96,382.27 C312.35,334.94 332.45,255.63 337.66,214.5 C342.35,177.48 340.94,109.06 340.94,109.06 Z" fill="url(#linearGradient-4)"></path>
                    </g>
                    <g transform="translate(105.000000, 70.000000)" id="Path">
                        <path d="M15.77,12.19 C15.77,12.19 42.16,0.8 79.74,0.8 C117.33,0.8 145.61,10.1 151.88,14.47 C158.14,18.84 160.04,28.9 161.56,42.38 C163.08,55.86 167.44,101.04 162.51,125.72 C157.57,150.4 137.26,176.6 126.06,187.8 C114.86,199 98.34,210.39 89.42,211.72 C80.5,213.05 69.11,211.91 59.8,205.64 C50.5,199.38 26.01,178.87 13.67,155.14 C1.33,131.41 -0.19,114.14 0.38,94.77 C0.95,75.41 3.6,31.47 8.73,22.06 C13.31,13.71 15.77,12.19 15.77,12.19 Z" fill="url(#linearGradient-5)"></path>
                        <path d="M57.73,75.02 C57.73,75.02 48.9,65.34 37.51,64.48 C26.12,63.63 20.57,70.46 20.42,70.89 C20.28,71.32 21.27,74.16 23.98,74.73 C26.69,75.31 49.47,77.73 57.73,75.02 Z" fill="url(#linearGradient-6)"></path>
                        <path d="M57.73,75.02 C49.47,77.73 26.69,75.3 23.99,74.74 C21.29,74.17 20.29,71.32 20.43,70.9 C20.43,70.9 19.01,70.85 17.3,69.71 C15.59,68.57 15.02,62.4 15.02,62.4 C15.02,62.4 14.74,63.63 14.74,65.72 C14.74,67.81 15.4,69.33 15.69,70.28 C15.97,71.23 14.08,71.7 13.79,71.61 C13.51,71.51 14.74,72.46 15.88,72.65 C17.02,72.84 17.68,73.5 15.5,74.83 C13.32,76.16 8.86,83.47 8.86,83.47 C8.86,83.47 12.94,78.34 15.03,76.73 C17.12,75.12 19.78,75.21 22.72,75.78 C25.66,76.35 29.84,79.01 39.81,79.1 C49.78,79.19 57.94,75.4 57.94,75.4 L57.73,75.02 Z" fill="#EE30FF"></path>
                        <path d="M65.7,60.79 C65.7,60.79 62.14,60.22 57.58,57.37 C53.02,54.52 40.49,46.26 32.81,44.98 C25.12,43.7 18,45.26 13.73,48.4 C9.46,51.53 8.89,52.67 8.89,52.67 C8.89,52.67 13.45,40.85 26.4,39.86 C39.36,38.86 53.17,43.13 62.14,48.97 C71.11,54.81 68.41,60.36 65.7,60.79 Z" fill="#000000"></path>
                        <path d="M65,39.61 C65,39.61 64.81,39.5 64.46,39.3 C64.1,39.1 63.57,38.81 62.89,38.45 C61.53,37.73 59.57,36.72 57.16,35.62 C54.75,34.52 51.91,33.31 48.79,32.22 C47.23,31.68 45.6,31.15 43.93,30.71 C42.26,30.26 40.54,29.88 38.8,29.61 C37.06,29.34 35.31,29.17 33.59,29.19 C33.16,29.21 32.73,29.22 32.3,29.24 C31.87,29.27 31.45,29.32 31.03,29.37 C30.61,29.42 30.2,29.51 29.79,29.58 C29.39,29.65 28.97,29.77 28.57,29.86 C27.76,30.05 26.96,30.23 26.19,30.45 C25.42,30.66 24.66,30.85 23.94,31.09 C23.21,31.32 22.5,31.53 21.84,31.78 C21.5,31.9 21.17,32.02 20.85,32.13 C20.53,32.25 20.22,32.39 19.91,32.51 C18.67,33 17.59,33.54 16.63,34.05 C15.7,34.59 14.89,35.09 14.29,35.58 C13.68,36.06 13.24,36.48 12.97,36.8 C12.7,37.12 12.59,37.31 12.59,37.31 C12.59,37.31 12.69,37.11 12.95,36.79 C13.21,36.46 13.64,36.02 14.24,35.52 C14.83,35.01 15.62,34.49 16.54,33.91 C17.48,33.37 18.56,32.79 19.79,32.26 C20.1,32.13 20.41,31.98 20.73,31.85 C21.05,31.72 21.38,31.59 21.72,31.46 C22.39,31.19 23.09,30.95 23.82,30.7 C24.54,30.44 25.3,30.22 26.07,29.99 C26.84,29.74 27.63,29.55 28.44,29.33 C28.85,29.23 29.24,29.11 29.67,29.01 C30.09,28.93 30.51,28.82 30.94,28.76 C31.37,28.7 31.8,28.64 32.24,28.59 C32.68,28.56 33.12,28.53 33.56,28.5 C35.33,28.43 37.13,28.54 38.91,28.77 C40.69,28.99 42.45,29.33 44.17,29.74 C45.89,30.14 47.55,30.62 49.15,31.12 C52.35,32.13 55.27,33.27 57.74,34.31 C60.21,35.36 62.23,36.31 63.63,37.01 C64.33,37.36 64.88,37.64 65.25,37.83 C65.62,38.03 65.83,38.13 65.83,38.13 C66.25,38.35 66.41,38.87 66.18,39.28 C65.96,39.7 65.44,39.86 65.03,39.64 C65.02,39.64 65.02,39.63 65.01,39.63 L65,39.61 Z" fill="#EE30FF"></path>
                        <path d="M57.59,57.37 C53.03,54.52 40.5,46.26 32.82,44.98 C25.13,43.7 18.01,45.26 13.74,48.4 C13.34,48.69 12.97,48.97 12.64,49.23 C11.86,49.89 11.08,50.61 10.32,51.39 C10.02,51.7 23.7,45.27 39.79,51.96 C55.88,58.65 67.84,75.88 67.84,75.88 C67.84,75.88 66.76,67.07 62.14,59.7 C60.85,59.18 59.29,58.43 57.59,57.37 Z" fill="#EE30FF"></path>
                        <path d="M108.13,75.02 C108.13,75.02 116.96,65.34 128.35,64.48 C139.74,63.63 145.29,70.46 145.44,70.89 C145.58,71.32 144.59,74.16 141.88,74.73 C139.17,75.31 116.39,77.73 108.13,75.02 Z" fill="url(#linearGradient-7)"></path>
                        <path d="M108.13,75.02 C116.39,77.73 139.17,75.3 141.87,74.74 C144.57,74.17 145.57,71.32 145.43,70.9 C145.43,70.9 146.85,70.85 148.56,69.71 C150.27,68.57 150.84,62.4 150.84,62.4 C150.84,62.4 151.13,63.63 151.13,65.72 C151.13,67.81 150.46,69.33 150.18,70.28 C149.9,71.23 151.79,71.7 152.08,71.61 C152.36,71.51 151.13,72.46 149.99,72.65 C148.85,72.84 148.19,73.5 150.37,74.83 C152.55,76.16 157.02,83.47 157.02,83.47 C157.02,83.47 152.94,78.34 150.85,76.73 C148.76,75.12 146.1,75.21 143.16,75.78 C140.22,76.35 136.04,79.01 126.07,79.1 C116.1,79.19 107.94,75.4 107.94,75.4 L108.13,75.02 Z" fill="#0549D2"></path>
                        <path d="M100.16,60.79 C100.16,60.79 103.72,60.22 108.28,57.37 C112.84,54.52 125.37,46.26 133.05,44.98 C140.74,43.7 147.86,45.26 152.13,48.4 C156.4,51.53 156.97,52.67 156.97,52.67 C156.97,52.67 152.41,40.85 139.46,39.86 C126.5,38.86 112.69,43.13 103.72,48.97 C94.75,54.81 97.45,60.36 100.16,60.79 Z" fill="#000000"></path>
                        <path d="M100.02,38.12 C100.02,38.12 100.22,38.01 100.6,37.82 C100.97,37.63 101.52,37.34 102.22,37 C103.62,36.31 105.64,35.35 108.11,34.3 C110.58,33.26 113.5,32.12 116.7,31.11 C118.3,30.61 119.97,30.12 121.68,29.73 C123.4,29.33 125.16,28.99 126.94,28.76 C128.72,28.54 130.52,28.42 132.29,28.49 C132.73,28.52 133.17,28.55 133.61,28.58 C134.05,28.62 134.48,28.69 134.91,28.75 C135.34,28.82 135.76,28.92 136.18,29 C136.61,29.09 137,29.21 137.41,29.32 C138.21,29.54 139.01,29.73 139.78,29.98 C140.55,30.22 141.31,30.43 142.03,30.69 C142.75,30.94 143.46,31.17 144.13,31.45 C144.47,31.58 144.8,31.71 145.12,31.84 C145.44,31.97 145.75,32.12 146.06,32.25 C147.29,32.78 148.37,33.36 149.31,33.9 C150.23,34.47 151.02,35 151.61,35.51 C152.21,36.01 152.64,36.45 152.9,36.78 C153.16,37.1 153.26,37.3 153.26,37.3 C153.26,37.3 153.15,37.1 152.88,36.79 C152.62,36.47 152.17,36.05 151.56,35.57 C150.96,35.08 150.16,34.58 149.22,34.04 C148.27,33.53 147.18,32.98 145.94,32.5 C145.63,32.38 145.32,32.24 145,32.12 C144.67,32 144.34,31.89 144.01,31.77 C143.34,31.52 142.63,31.31 141.9,31.08 C141.18,30.84 140.42,30.65 139.65,30.44 C138.89,30.22 138.08,30.05 137.27,29.85 C136.87,29.76 136.45,29.65 136.05,29.57 C135.64,29.5 135.23,29.41 134.81,29.36 C134.39,29.32 133.97,29.27 133.54,29.23 C133.11,29.21 132.68,29.2 132.25,29.18 C130.53,29.16 128.77,29.33 127.04,29.6 C125.3,29.87 123.58,30.26 121.91,30.7 C120.23,31.14 118.61,31.67 117.05,32.21 C113.93,33.3 111.08,34.51 108.68,35.61 C106.27,36.71 104.31,37.72 102.95,38.44 C102.27,38.8 101.74,39.09 101.38,39.29 C101.03,39.49 100.84,39.6 100.84,39.6 L100.83,39.61 C100.42,39.84 99.9,39.7 99.67,39.29 C99.44,38.88 99.58,38.36 99.99,38.13 C100.01,38.12 100.02,38.12 100.02,38.12 Z" fill="#0549D2"></path>
                        <path d="M108.27,57.37 C112.83,54.52 125.36,46.26 133.04,44.98 C140.73,43.7 147.85,45.26 152.12,48.4 C152.52,48.69 152.89,48.97 153.22,49.23 C154,49.89 154.78,50.61 155.53,51.39 C155.83,51.7 142.15,45.27 126.06,51.96 C109.97,58.65 98.01,75.88 98.01,75.88 C98.01,75.88 99.09,67.07 103.71,59.7 C105.01,59.18 106.57,58.43 108.27,57.37 Z" fill="#0549D2"></path>
                        <path d="M21.28,96.81 C21.28,90.52 26.38,85.42 32.67,85.42 C38.96,85.42 44.06,90.52 44.06,96.81 C44.06,103.1 38.96,108.2 32.67,108.2 C26.38,108.2 21.28,103.1 21.28,96.81 Z" fill="#EE30FF"></path>
                        <path d="M121.09,96.81 C121.09,90.52 126.19,85.42 132.48,85.42 C138.77,85.42 143.87,90.52 143.87,96.81 C143.87,103.1 138.77,108.2 132.48,108.2 C126.19,108.2 121.09,103.1 121.09,96.81 Z" fill="#0549D2"></path>
                        <path d="M9.18,107.77 C9.18,107.77 15.15,116.57 27.55,117.74 C42.64,119.16 58.73,107.92 58.73,107.92 C58.73,107.92 51.04,116.32 41.08,119.17 C31.11,122.02 21.43,120.17 20.86,120.45 C20.29,120.73 17.02,123.72 26.84,144.23 C36.66,164.73 47.48,187.66 47.48,187.66 C47.48,187.66 31.11,164.74 22.85,146.09 C14.59,127.44 13.45,119.32 16.16,117.9 C16.15,117.88 10.17,108.2 9.18,107.77 Z" fill="#EE30FF"></path>
                        <path d="M155.83,108.48 C155.83,108.48 149.86,117.28 137.46,118.45 C122.37,119.87 106.28,108.63 106.28,108.63 C106.28,108.63 113.97,117.03 123.94,119.88 C133.91,122.73 143.59,120.88 144.16,121.16 C144.73,121.44 148,124.43 138.18,144.94 C128.36,165.44 117.53,188.37 117.53,188.37 C117.53,188.37 133.9,165.45 142.16,146.8 C150.42,128.15 151.56,120.03 148.85,118.61 C148.85,118.59 154.83,108.91 155.83,108.48 Z" fill="#0549D2"></path>
                        <path d="M74.67,67.91 C74.67,67.91 73.25,90.55 71.25,93.25 C69.26,95.96 58.86,108.06 59.01,112.47 C59.15,116.88 62,121.44 62,121.44 C62,121.44 59.58,114.75 62.43,111.05 C65.28,107.35 71.12,99.66 71.4,102.22 C71.68,104.78 68.98,115.03 71.12,119.16 C73.26,123.29 80.37,126.14 82.65,125.85 C84.93,125.57 91.05,123.71 93.19,120.16 C95.33,116.6 94.9,113.47 94.19,108.91 C93.48,104.35 92.62,101.22 94.19,101.93 C95.76,102.64 103.16,110.19 103.59,113.89 C104.02,117.59 103.02,121.86 103.02,121.86 C103.02,121.86 107.29,116.17 105.3,110.47 C103.31,104.77 93.34,94.38 92.77,90.25 C92.2,86.12 90.92,68.18 90.78,68.61 C90.64,69.04 88.79,91.39 89.64,102.35 C90.49,113.31 92.63,118.3 89.07,120.72 C85.51,123.14 81.38,122 78.39,121.29 C75.4,120.58 72.98,118.44 74.12,112.32 C75.24,106.21 76.52,75.02 74.67,67.91 Z" fill="url(#linearGradient-8)"></path>
                        <path d="M64.85,121.87 C64.85,121.87 67.98,125.14 69.97,125.71 C71.96,126.28 72.11,123.29 69.4,122.29 C66.7,121.3 64.85,121.87 64.85,121.87 Z" fill="#231F20"></path>
                        <path d="M100.07,121.87 C100.07,121.87 96.94,125.14 94.94,125.71 C92.95,126.28 92.81,123.29 95.51,122.29 C98.22,121.3 100.07,121.87 100.07,121.87 Z" fill="#231F20"></path>
                        <path d="M88.73,153.87 C86.63,153.87 84.4,153.83 82.05,153.76 C59.75,153.02 49.78,150.62 49.71,150.6 C49.41,150.5 49.25,150.18 49.35,149.88 C49.45,149.58 49.77,149.42 50.07,149.52 C50.19,149.55 60.21,151.9 82.09,152.62 C103.12,153.32 114.14,150.53 114.25,150.5 C114.55,150.42 114.87,150.6 114.94,150.91 C115.02,151.21 114.84,151.53 114.53,151.6 C114.44,151.63 105.59,153.87 88.73,153.87 Z" fill="#231F20"></path>
                        <path d="M81.48,169.17 C77.78,169.17 74.58,168.87 71.96,168.46 C64.38,167.3 60.08,165.14 59.9,165.05 C59.48,164.84 59.31,164.32 59.53,163.9 C59.74,163.48 60.26,163.31 60.68,163.53 C60.76,163.57 65,165.68 72.3,166.79 C79.06,167.82 89.91,168.18 103.17,164.05 C103.62,163.91 104.1,164.16 104.24,164.61 C104.38,165.06 104.13,165.54 103.68,165.68 C95.18,168.33 87.64,169.17 81.48,169.17 Z" fill="#FFFFFF"></path>
                        <path d="M87.91,175.26 C88.31,172.88 89.6,170.08 90.35,168.61 C87.15,169.02 84.18,169.18 81.47,169.18 C78.52,169.18 75.89,168.98 73.62,168.7 C74.76,170.45 76.44,173.84 75.67,177.83 C74.53,183.67 71.97,187.8 72.82,194.77 C73.67,201.75 76.24,215.42 77.66,216.13 C79.08,216.84 85.92,216.98 86.91,214.28 C87.91,211.58 91.61,194.21 90.9,189.79 C90.19,185.37 87.34,178.68 87.91,175.26 Z" fill="#000000"></path>
                        <path d="M32.38,120.59 C32.38,120.59 40.78,136.68 43.49,137.25 C46.19,137.82 62.28,137.82 66.27,135.68 C70.26,133.54 70.4,129.98 73.25,128.13 C76.1,126.28 80.37,128.84 82.22,129.13 L82.22,136.96 C82.22,136.96 75.53,145.36 71.83,146.07 C68.13,146.78 48.34,146.07 44.35,145.5 C40.36,144.93 35.81,141.66 34.38,138.95 C32.96,136.25 24.27,120.58 24.27,120.58 L32.38,120.58 L32.38,120.59 Z" fill="#000000"></path>
                        <path d="M131.76,121.58 C131.76,121.58 123.5,136.67 120.8,137.24 C118.09,137.81 102.01,137.81 98.02,135.67 C94.03,133.53 93.89,129.97 91.04,128.12 C88.19,126.27 83.92,128.83 82.07,129.12 L82.07,136.95 C82.07,136.95 88.76,145.35 92.46,146.06 C96.16,146.77 115.95,146.06 119.94,145.49 C123.93,144.92 128.48,141.65 129.91,138.94 C131.33,136.24 139.88,121.43 139.88,121.43 L131.76,121.58 Z" fill="#000000"></path>
                    </g>
                    <path d="M1.01,90.81 C1.01,90.81 -0.67,172.4 4.92,216.54 C11.13,265.58 35.1,360.15 90.42,416.59 C145.74,473.03 186.53,481.41 186.53,481.41 L186.53,0.28 L1.01,90.81 Z" id="Path" fill="url(#linearGradient-9)" opacity="0.2"></path>
                </g>
                <path d="M114.04,449.74 C85.41,412.66 79.77,397.17 81.18,399.52 C82.59,401.87 101.36,435.66 155.81,474.15 C200.96,506.07 273.66,523.48 273.66,523.48 C273.66,523.48 205.66,496.39 159.09,455.84 C133.56,433.61 112.96,403.26 102.59,380.61 C102.59,380.61 96.47,368.37 93.6,353.63 C90.73,338.9 97.71,324.74 97.71,324.74 C97.71,324.74 100.2,326.65 105.08,330.58 C109.96,334.5 116.18,339.29 119.43,339.57 C122.68,339.86 137.51,336.13 147.84,333.54 C158.17,330.96 169.27,329.71 169.27,329.71 C169.27,329.71 170.32,330.67 175.77,330.48 C181.22,330.29 181.22,324.17 181.22,324.17 C181.22,324.17 181.22,324.17 179.4,325.03 C177.58,325.89 174.04,325.51 174.04,325.51 C174.04,325.51 177.2,324.74 176.81,321.68 C176.43,318.62 172.41,314.89 172.41,314.89 C172.41,314.89 173.08,317.09 172.51,319.1 C171.94,321.11 168.4,321.78 168.4,321.78 C168.4,321.78 168.78,320.34 167.92,317.95 C167.06,315.56 164.19,313.55 164.19,313.55 C164.19,313.55 165.34,316.52 165.24,317.57 C165.14,318.62 161.32,320.73 157.68,319.96 C154.04,319.19 155.1,313.55 155.1,313.55 C155.1,313.55 154.05,313.93 152.61,316.13 C151.18,318.33 155.96,322.35 155.96,322.35 C155.96,322.35 154.91,322.64 146.11,322.83 C137.31,323.02 120.86,323.6 120.86,323.6 C120.86,323.6 112.92,304.66 106.99,295.67 C101.06,286.68 94.84,283.23 94.84,283.23 L154.16,265.87 L143.21,235.37 C143.21,235.37 83.74,270.32 80.78,268.89 C77.81,267.46 71.79,262.1 65.76,252.05 C59.73,242.01 60.5,232.63 60.5,232.63 C60.5,232.63 71.98,226.7 85.56,222.39 C99.14,218.09 116.75,216.94 116.75,216.94 C116.75,216.94 114.74,218.47 114.45,222.68 C114.16,226.89 119.81,227.65 119.81,227.65 C119.81,227.65 117.23,223.35 118.76,221.24 C120.29,219.14 123.45,219.33 126.7,221.24 C129.95,223.15 129.86,228.99 129.86,228.99 C129.86,228.99 131.77,227.65 132.44,223.92 C133.11,220.19 131.01,217.32 131.01,217.32 C131.01,217.32 133.02,217.42 135.98,219.71 C138.95,222.01 138.85,227.08 138.85,227.08 C138.85,227.08 142.49,222.49 141.34,218.76 C140.19,215.03 135.89,212.54 135.89,212.54 C135.89,212.54 137.23,212.16 139.91,212.54 C141.71,212.8 145.46,215.41 145.46,215.41 C145.46,215.41 144.69,207.76 138.76,206.13 C132.83,204.5 127.57,206.61 127.57,206.61 C127.57,206.61 102.32,200.3 73.42,206.99 C56.81,210.84 44.15,215.98 39.94,219.04 C35.73,222.1 31.52,225.74 28.75,241.81 C25.53,260.45 34.59,274.91 34.59,274.91 C34.59,274.91 20.19,294.5 24.45,329.06 C29.55,370.43 46.3,399.96 92.92,447.88 C126.72,482.61 169.43,506.55 169.43,506.55 L175.53,504.67 C175.53,504.66 155.09,502.9 114.04,449.74 Z" id="Path" fill="url(#linearGradient-10)"></path>
                <path d="M616.58,448.73 C647.3,413.36 653.82,398.22 652.28,400.48 C650.74,402.74 630.05,435.4 573.47,470.69 C526.55,499.95 463.83,513.77 463.83,513.77 C463.83,513.77 522.42,490.02 571.25,452.22 C598.02,431.5 620.33,402.38 631.99,380.37 C631.99,380.37 638.81,368.5 642.52,353.96 C646.23,339.42 640.08,324.88 640.08,324.88 C640.08,324.88 637.49,326.65 632.39,330.28 C627.29,333.91 620.81,338.33 617.55,338.43 C614.29,338.53 599.7,333.95 589.53,330.78 C579.37,327.61 568.36,325.72 568.36,325.72 C568.36,325.72 567.26,326.61 561.82,326.11 C556.39,325.6 556.74,319.49 556.74,319.49 C556.74,319.49 556.74,319.49 558.51,320.45 C560.27,321.41 563.83,321.24 563.83,321.24 C563.83,321.24 560.72,320.29 561.28,317.26 C561.84,314.23 566.06,310.73 566.06,310.73 C566.06,310.73 565.26,312.89 565.72,314.93 C566.18,316.97 569.67,317.84 569.67,317.84 C569.67,317.84 569.37,316.38 570.37,314.05 C571.37,311.71 574.35,309.87 574.35,309.87 C574.35,309.87 573.03,312.76 573.07,313.82 C573.1,314.88 576.8,317.2 580.48,316.64 C584.15,316.09 583.43,310.39 583.43,310.39 C583.43,310.39 584.46,310.83 585.76,313.11 C587.07,315.39 582.06,319.12 582.06,319.12 C582.06,319.12 583.09,319.47 591.87,320.17 C600.65,320.87 617.04,322.39 617.04,322.39 C617.04,322.39 626.06,303.94 632.5,295.3 C638.94,286.66 645.35,283.58 645.35,283.58 L605.24,267.37 L631.78,242.16 C631.78,242.16 657.17,271.33 660.22,270.06 C663.26,268.8 669.59,263.8 676.18,254.12 C682.78,244.44 682.55,235.04 682.55,235.04 C682.55,235.04 671.43,228.46 658.12,223.38 C644.81,218.3 627.3,216.14 627.3,216.14 C627.3,216.14 629.22,217.78 629.26,222 C629.3,226.22 623.63,226.66 623.63,226.66 C623.63,226.66 626.46,222.51 625.05,220.32 C623.64,218.13 620.48,218.14 617.12,219.86 C613.76,221.58 613.52,227.41 613.52,227.41 C613.52,227.41 611.69,225.96 611.23,222.2 C610.78,218.44 613.04,215.69 613.04,215.69 C613.04,215.69 611.03,215.67 607.94,217.79 C604.85,219.91 604.65,224.98 604.65,224.98 C604.65,224.98 601.29,220.19 602.65,216.53 C604.01,212.87 608.45,210.64 608.45,210.64 C608.45,210.64 607.13,210.18 604.44,210.41 C602.63,210.56 598.74,212.96 598.74,212.96 C598.74,212.96 599.95,205.36 605.96,204.08 C611.98,202.8 617.11,205.2 617.11,205.2 C617.11,205.2 642.69,200.35 671.14,208.7 C687.5,213.5 699.85,219.36 703.87,222.66 C707.9,225.96 711.89,229.83 713.73,246.04 C715.87,264.84 706,278.75 706,278.75 C706,278.75 719.25,299.13 713,333.39 C705.52,374.39 687.1,402.91 637.8,448.06 C602.06,480.79 572.18,499.05 572.18,499.05 L568.42,496.23 C568.4,496.24 572.54,499.43 616.58,448.73 Z" id="Path" fill="url(#linearGradient-11)"></path>
                <g id="Group" transform="translate(284.000000, 186.000000)">
                    <path d="M17.94,153.7 C17.94,153.7 21.25,6.69 20.94,4.68 C20.63,2.67 19.97,0.1 19.97,0.1 C19.97,0.1 18.56,2.39 18.11,5.66 C17.66,8.92 9.5,154.17 9.5,154.17 L17.94,153.7 Z" id="Path" fill="url(#linearGradient-12)"></path>
                    <polygon id="Path" fill="#FFFFFF" points="19.97 0.1 12.3 154.01 7.3 154.01 17.31 4.43"></polygon>
                    <g transform="translate(0.000000, 92.000000)" id="Path">
                        <path d="M73.32,146.58 C73.32,146.58 72.43,155.4 72.65,161.56 C72.87,167.72 74.63,176.52 74.63,176.52 C74.63,176.52 76.83,173.44 84.53,174.54 C92.23,175.64 92.45,177.84 92.45,177.84 C92.45,177.84 100.15,159.8 101.69,153.63 C103.23,147.47 105.65,142.85 105.65,142.85 C105.65,142.85 102.79,138.01 101.47,135.15 C100.15,132.29 99.27,129.65 99.27,129.65 L88.81,150.1 C88.81,150.1 79.27,149.66 73.32,146.58 Z" fill="#000000"></path>
                        <path d="M109.25,149.16 C109.25,149.16 114.46,166.51 116.99,171.68 C119.52,176.85 121.83,179.6 121.83,179.6 C121.83,179.6 124.47,175.86 128.76,174.76 C133.05,173.66 136.68,173.22 136.68,173.22 C136.68,173.22 119.89,161.96 109.25,149.16 Z" fill="#000000"></path>
                        <path d="M121.83,179.6 C121.83,179.6 121.06,181.69 121.5,184.55 C121.94,187.41 123.26,189.39 123.26,189.39 C123.26,189.39 128.98,192.25 134.26,190.6 C139.54,188.95 140.42,186.09 140.42,186.09 C140.42,186.09 141.63,183.23 141.3,179.93 C140.97,176.63 140.75,176.08 140.75,176.08 L136.68,173.22 C136.69,173.22 123.92,173.99 121.83,179.6 Z" fill="url(#linearGradient-13)"></path>
                        <path d="M123.26,189.4 C123.26,189.4 122.93,195.34 125.02,200.51 C127.11,205.68 132.61,216.24 135.36,223.73 C138.11,231.21 138.77,238.47 139.43,242.32 C140.09,246.17 139.54,248.04 139.54,248.04 C139.54,248.04 142.95,249.47 146.47,248.92 C149.99,248.37 153.62,245.62 153.62,245.62 L151.42,237.92 C151.42,237.92 148.01,226.81 148.01,221.2 C148.01,215.59 146.58,197.87 144.6,193.8 C142.62,189.73 140.42,186.1 140.42,186.1 C140.42,186.1 137.45,190.28 133.6,190.94 C129.75,191.6 125.13,190.61 123.26,189.4 Z" fill="url(#linearGradient-14)"></path>
                        <path d="M131.84,173.41 C131.84,173.41 134.97,180.92 135.28,183.11 C135.59,185.3 136.22,189.99 136.22,189.99 L148.42,248.51 L152.3,246.38 L147.17,223.47 L144.04,194.99 L140.42,186.08 C140.42,186.08 139.97,179.66 139.97,177.78 C139.97,175.9 136.68,173.21 136.68,173.21" fill="#FFFFFF" opacity="0.4"></path>
                        <path d="M139.55,248.04 C139.55,248.04 137.46,251.89 136.36,253.21 C135.26,254.53 132.4,258.6 132.29,260.58 C132.18,262.56 135.04,265.64 135.04,265.64 C135.04,265.64 138.56,266.85 146.04,265.75 C153.52,264.65 155.83,261.79 156.16,259.81 C156.49,257.83 156.05,255.3 155.5,253.43 C154.95,251.56 152.31,246.39 152.31,246.39 C152.31,246.39 147.9,248.91 146.04,249.03 C142.63,249.25 139.55,248.04 139.55,248.04 Z" fill="#000000"></path>
                        <path d="M99.28,129.65 C99.28,129.65 94.66,140.87 92.9,146.37 C91.14,151.87 91.14,151.87 91.14,151.87 C91.14,151.87 82.78,151.43 77.94,149.67 C73.1,147.91 66.45,141.8 66.45,141.8 C66.45,141.8 71.34,125.9 73.98,119.08 C76.62,112.26 79.26,108.52 79.26,108.52 C79.26,108.52 83.88,114.46 89.38,116 C94.88,117.54 96.2,117.76 96.2,117.76 C96.2,117.76 97.96,127.67 99.28,129.65 Z" fill="url(#linearGradient-15)"></path>
                        <path d="M91.14,151.88 C91.14,151.88 91.14,151.88 92.9,146.38 C94.66,140.88 99.28,129.66 99.28,129.66 C98.88,129.06 98.43,127.71 98.01,126.14 L88.82,150.11 C88.82,150.11 85.06,149.88 79.2,147.76 C74.6,146.1 69.13,141.84 66.98,140.09 C66.64,141.17 66.44,141.82 66.44,141.82 C66.44,141.82 73.09,147.93 77.93,149.69 C82.77,151.44 91.14,151.88 91.14,151.88 Z" fill="#FFFFFF"></path>
                        <path d="M62.64,50.76 C62.64,50.76 51.75,60.11 50.87,62.2 C49.99,64.29 49.33,66.05 49.33,66.05 C49.33,66.05 44.38,68.25 41.41,71.11 C38.44,73.97 36.35,77.49 36.35,77.49 C36.35,77.49 46.91,81.34 47.13,84.75 C47.35,88.16 47.13,93.22 47.13,93.22 C47.13,93.22 49.66,91.13 51.64,89.04 C53.62,86.95 54.61,87.57 55.6,86.4 C57.62,84.02 61.21,81.12 62.86,78.81 C64.51,76.5 64.95,75.73 65.61,75.73 C66.27,75.73 67.59,75.8 67.59,75.8 L71.33,64.06 L67.81,50.42 L62.64,50.76 Z" fill="#000000"></path>
                        <path d="M79.25,108.53 C79.25,108.53 82.11,103.1 82.11,101.19 C82.11,99.28 81.67,94 80.35,92.39 C79.03,90.78 75.22,87.4 73.6,85.05 C71.99,82.7 67.59,75.81 67.59,75.81 C67.59,75.81 69.64,69.35 69.64,68.77 C69.64,68.19 74.33,43.24 74.33,43.24 C74.33,43.24 88.12,50.58 97.22,45.73 C106.31,40.89 112.7,30.84 112.7,30.84 L129.06,45.44 L140.94,108.08 L105.14,119.38 L96.19,117.77 C96.2,117.77 85.93,116.74 79.25,108.53 Z" fill="url(#linearGradient-16)"></path>
                        <path d="M111.89,30.63 C111.89,30.63 118.57,27.26 130.23,30.48 C144.02,34.29 150.18,46.18 150.18,46.18 C150.18,46.18 142.99,45.89 137.42,45.59 C131.85,45.29 125.99,45.91 125.99,45.91 C125.99,45.91 118.5,41.63 116.74,40.16 C114.98,38.69 113.66,36.05 113.66,36.05 L111.89,30.63 Z" fill="url(#linearGradient-17)"></path>
                        <path d="M82.76,55.95 C82.76,55.95 107.85,46.12 125.3,44.8 C142.76,43.48 162.98,51.53 162.98,51.53 C162.98,51.53 170.06,108.83 166.89,131.13 C162.64,161.06 145.61,176.15 145.61,176.15 C145.61,176.15 110.78,160.18 100,136.63 C89.21,113.09 82.76,55.95 82.76,55.95 Z" fill="url(#linearGradient-18)"></path>
                        <path d="M85.34,56.89 C85.34,56.89 110.43,47.06 127.88,45.74 C145.34,44.42 166.02,49.26 166.02,49.26 C166.02,49.26 172.64,109.77 169.47,132.07 C165.22,162 147.1,179.97 147.1,179.97 C147.1,179.97 113.36,161.12 102.58,137.57 C91.8,114.03 85.34,56.89 85.34,56.89 Z" fill="#FFFFFF"></path>
                        <path d="M86.51,58.43 C86.51,58.43 110.9,48.87 127.88,47.59 C144.86,46.31 164.97,51.01 164.97,51.01 C164.97,51.01 171.41,109.85 168.32,131.54 C164.18,160.64 146.57,178.12 146.57,178.12 C146.57,178.12 113.76,159.79 103.28,136.89 C92.79,113.99 86.51,58.43 86.51,58.43 Z" fill="url(#linearGradient-19)"></path>
                        <path d="M126.28,47.73 C109.42,49.46 86.52,58.43 86.52,58.43 C86.52,58.43 92.8,113.99 103.28,136.89 C113.76,159.79 146.57,178.12 146.57,178.12 C146.57,178.12 146.64,178.05 146.78,177.91 L126.28,47.73 Z" fill="url(#linearGradient-20)" opacity="0.5"></path>
                        <path d="M74.63,176.52 C74.63,176.52 73.75,177.91 73.16,180.7 C72.57,183.49 72.72,185.54 72.72,185.54 C72.72,185.54 78.73,188.91 84.16,189.21 C89.59,189.5 90.03,188.48 90.03,188.48 C90.03,188.48 92.23,184.67 92.52,182.61 C92.81,180.56 92.45,177.84 92.45,177.84 C92.45,177.84 89.88,174.98 84.53,174.54 C79.18,174.1 76.24,174.83 74.63,176.52 Z" fill="url(#linearGradient-21)"></path>
                        <path d="M72.72,185.54 C72.27,185.28 69.9,191.92 69.79,204.9 C69.68,217.88 70.12,231.64 69.46,234.94 C68.8,238.24 67.7,242.75 67.7,242.75 C67.7,242.75 70.89,245.17 74.3,244.95 C77.71,244.73 80.24,243.19 80.24,243.19 C80.24,243.19 80.9,234.94 82.22,230.54 C83.54,226.14 89.04,211.4 90.03,207.21 C91.02,203.03 91.79,197.09 91.35,194.67 C90.91,192.25 90.03,188.47 90.03,188.47 C90.03,188.47 82.22,190.94 72.72,185.54 Z" fill="url(#linearGradient-22)"></path>
                        <path d="M81.77,175.29 L79.58,187.81 L72.7,244.45 L68.32,243.82 L70.82,233.81 C70.82,233.81 70.19,195.32 71.45,190.94 C72.7,186.56 72.7,186.56 72.7,186.56 C72.7,186.56 72.7,178.11 75.83,176.23 C78.96,174.35 81.77,175.29 81.77,175.29 Z" fill="#FFFFFF" opacity="0.4"></path>
                        <path d="M67.7,242.76 C67.7,242.76 63.92,247.82 62.02,249.29 C60.11,250.76 54.17,254.35 53.44,255.89 C52.71,257.43 52.78,260.58 53.66,261.46 C54.54,262.34 59.16,263.37 63.93,262.19 C68.7,261.02 70.9,258.08 72.81,256.84 C74.72,255.59 78.53,252.66 78.75,252.29 C78.97,251.92 79.34,249.06 79.41,247.52 C79.48,245.98 78.82,243.78 78.82,243.78 C78.82,243.78 71.84,246.06 67.7,242.76 Z" fill="#000000"></path>
                        <path d="M38.84,74.34 L20.65,72.34 C20.65,72.34 22.4,76.19 21.7,78.63 C21,81.06 19.89,83.02 19.89,83.02 L46.47,94.05 C46.47,94.05 49.95,86.62 49.02,83.91 C47.05,78.16 38.84,74.34 38.84,74.34 Z" fill="url(#linearGradient-23)"></path>
                        <path d="M74.19,40.9 C74.19,40.9 63.27,41.01 57.47,44.57 C49.11,49.7 49.55,59.24 49.55,59.24 C49.55,59.24 56.59,53.23 60.41,52.2 C64.23,51.17 65.54,51.32 65.54,51.32 C65.54,51.32 61.58,57.19 63.05,62.18 C64.52,67.17 69.65,68.78 69.65,68.78 C69.65,68.78 73.61,55.87 74.93,51.91 C76.25,47.95 76.25,47.8 76.25,47.8 L74.19,40.9 Z" fill="url(#linearGradient-24)"></path>
                        <path d="M74.19,40.9 C74.19,40.9 76.61,33.49 73.31,21.83 C71.14,14.18 74.63,3.13 79.91,1.37 C85.19,-0.39 89.59,0.49 94.65,4.23 C99.71,7.97 102.35,22.71 103.89,25.35 C105.43,27.99 112.69,30.85 112.69,30.85 C112.69,30.85 112.47,44.13 94.43,49.11 C78.72,53.45 71.1,41.77 71.1,41.77 L74.19,40.9 Z" fill="url(#linearGradient-25)"></path>
                        <polygon fill="url(#linearGradient-26)" points="71.99 22.05 86.51 21.83 100.6 11.48 104.56 24.47 92.9 45.37 73.53 31.07"></polygon>
                        <polygon fill="#000000" points="74.85 24.25 86.95 24.47 98.4 15.44 98.62 19.4 88.05 27.99 75.51 26.67"></polygon>
                        <polygon fill="#000000" points="13.87 68.58 12.68 89.93 11.87 91.04 8.71 89.35 9.76 67.8"></polygon>
                        <path d="M12.68,89.93 C12.68,89.93 14.14,92.15 13.52,94.69 C12.9,97.22 11.29,98.85 9.09,98.32 C6.88,97.79 6.63,94.98 7.09,92.91 C7.55,90.84 8.72,89.35 8.72,89.35 L11.88,91.04 L12.68,89.93 Z" fill="#000000"></path>
                        <path d="M18.17,66.55 C18.17,66.55 24.72,62.05 23.57,61.62 C22.42,61.19 1.07,61.3 0.8,61.62 C0.54,61.94 3.16,65.71 4.61,66.12 C6.05,66.52 18.17,66.55 18.17,66.55 Z" fill="#000000"></path>
                        <path d="M20.03,83.06 C20.03,83.06 16.89,83.89 14.69,83.87 C12.49,83.85 11.24,82.93 11.24,82.93 L13.27,70.97 L12.41,70.54 C12.41,70.54 10.4,72.77 8.82,72.28 C7.24,71.79 5.6,70.15 6.62,68.98 C7.64,67.81 10.45,66.22 11.54,65.69 C12.63,65.16 12.6,64.81 12.92,64.89 C13.24,64.97 19.32,66.26 19.32,67.68 C19.32,69.09 19.9,71.16 20.43,72.25 C20.96,73.34 22.19,76.69 21.78,78.4 C21.37,80.1 20.03,83.06 20.03,83.06 Z" fill="#1A0C4D"></path>
                        <path d="M10.63,66.14 C10.63,66.14 5.94,64.95 4.72,65.06 C3.51,65.16 2,66.5 2.21,67.74 C2.42,68.98 3.08,69.76 3.08,69.76 C3.08,69.76 1.28,70.4 1.04,71.65 C0.8,72.89 2.44,74.99 2.44,74.99 C2.44,74.99 1.17,75.82 1.5,77.25 C1.83,78.69 3.84,79.74 3.84,79.74 C3.84,79.74 3.59,81.94 5.12,82.65 C6.65,83.36 7.01,83.5 9.11,83.22 C11.22,82.93 12.83,81.4 12.54,80.48 C12.25,79.56 11.25,79.26 11.25,79.26 C11.25,79.26 12.28,78.49 11.89,77.32 C11.49,76.15 10.82,75.65 10.82,75.65 C10.82,75.65 11.76,75.03 11.99,73.61 C12.22,72.19 11.44,71.44 11.44,71.44 C11.44,71.44 9.56,72.68 8.24,72.03 C6.93,71.37 5.5,70.01 6.36,69.03 C7.24,68.04 10.63,66.14 10.63,66.14 Z" fill="#1A0C4D"></path>
                        <path d="M90.77,60.95 C90.77,60.95 113.04,52.22 128.54,51.05 C144.04,49.88 162.4,54.18 162.4,54.18 C162.4,54.18 168.28,107.9 165.46,127.7 C161.68,154.27 145.6,170.22 145.6,170.22 C145.6,170.22 115.64,153.48 106.07,132.58 C96.5,111.68 90.77,60.95 90.77,60.95 Z" fill="url(#linearGradient-27)"></path>
                        <path d="M126.84,51.37 L145.61,170.22 C145.61,170.22 167.53,149 166.59,109.88 C165.65,70.76 162.41,54.17 162.41,54.17 C162.41,54.17 135.91,48.24 126.84,51.37 Z" fill="url(#linearGradient-28)"></path>
                        <path d="M93.98,60.13 C93.98,60.13 102.43,125.53 111.19,137.11 C119.95,148.69 145.6,170.22 145.6,170.22 C145.6,170.22 110.56,149.31 103.68,128.03 C96.8,106.75 90.77,60.94 90.77,60.94 L93.98,60.13 Z" fill="#FFFFFF"></path>
                    </g>
                </g>
                <g id="Group" transform="translate(153.000000, 207.000000)">
                    <path d="M65.22,225.64 C65.22,225.64 54.34,241.54 54.06,242.24 C53.78,242.94 45.37,240.56 42.29,237.76 C39.21,234.96 37.67,233 37.67,233 L43.78,219.7 L65.22,225.64 Z" id="Path" fill="#000000"></path>
                    <path d="M52.8,186.06 L54.42,175.73 C56.62,177.15 63.35,185.91 78.2,183.71 C89.64,182.02 97.7,183.12 103.21,180.63 L103.51,180.6 C103.51,180.6 105.33,188.59 105.47,191.95 C105.61,195.31 107.01,223.19 107.01,223.19 C107.01,223.19 93.48,232.35 76.89,230.61 C50.35,227.83 36.89,216.41 36.89,216.41 L52.8,186.06 Z" id="Path" fill="url(#linearGradient-29)"></path>
                    <path d="M58.77,180.85 L56.11,190.8 L42.66,206.77 L34.81,206.77 C34.81,206.77 42.66,188.42 45.46,183.66 C48.26,178.9 49.52,177.78 49.52,177.78 C49.52,177.78 53.86,180.71 58.77,180.85 Z" id="Path" fill="url(#linearGradient-30)"></path>
                    <path d="M54.75,190.12 L40.11,206.76 L42.66,206.76 L56.11,190.79 L58.77,180.84 C58.41,180.83 58.05,180.8 57.69,180.76 L57.1,181.35 L54.75,190.12 Z" id="Path" fill="#FFFFFF"></path>
                    <path d="M76.49,184.17 C87.81,182.49 97.53,182.71 103.06,180.23 L103.52,180.12 C103.52,180.12 104.78,183.62 105.2,187.4 C105.62,191.18 106.6,211.64 106.6,211.64 L87.59,217.65 L65.83,193.84 L64.43,183.75 L65.37,183.53 C68.29,183.59 72.44,184.77 76.49,184.17 Z" id="Path" fill="url(#linearGradient-31)"></path>
                    <path d="M106.6,211.65 C106.6,211.65 106.57,210.95 106.51,209.79 L88.23,215.78 L66.95,193.25 L65.7,184.96 L64.77,183.69 L64.44,183.77 L65.84,193.86 L87.6,217.67 L106.6,211.65 Z" id="Path" fill="#FFFFFF"></path>
                    <path d="M104.08,224.58 L104.08,243.91 C104.08,243.91 95.39,247.41 90.91,246.57 C86.43,245.73 84.05,243.49 84.05,243.49 L82.089994,230.18 C82.08,230.19 94.55,229.21 104.08,224.58 Z" id="Path" fill="#000000"></path>
                    <path d="M113.04,260.03 L104.77,275.58 L97.2,269.7 C97.2,269.7 85.71,256.81 84.73,254.01 C83.75,251.21 84.03,243.5 84.03,243.5 C84.03,243.5 89.21,246.58 92.02,246.86 C94.82,247.14 101.27,244.48 101.27,244.48 C101.27,244.48 102.25,239.16 102.81,238.04 C103.37,236.92 106.73,234.54 107.99,235.24 C109.25,235.94 108.13,243.37 108.13,243.37 C108.13,243.37 109.39,244.77 110.79,246.59 C112.19,248.41 112.89,251.91 112.89,251.91 L113.04,260.03 Z" id="Path" fill="url(#linearGradient-32)"></path>
                    <path d="M112.95,259.65 L104.78,275.57 C104.78,275.57 107.07,279.26 109.87,285.33 C112.67,291.4 111.74,297.56 111.74,297.56 C111.74,297.56 119.59,298.12 122.29,297.56 C125,297 129.67,296.81 129.67,296.81 L131.26,295.69 L131.45,288.68 C131.45,288.68 123.6,282.98 121.83,280.18 C120.06,277.38 119.21,271.4 117.72,265.05 C116.23,258.7 112.86,252.44 112.86,252.44 L112.95,259.65 Z" id="Path" fill="url(#linearGradient-33)"></path>
                    <path d="M129.11,296.82 L128.83,305.41 C128.83,305.41 127.06,314.28 125.56,315.31 C124.07,316.34 118.37,317.93 115.57,317.83 C112.77,317.74 111.46,317.46 111.46,317.46 C111.46,317.46 108.38,312.7 108.84,310.83 C109.31,308.96 112.11,303.17 112.58,301.68 C113.05,300.19 113.7,297.66 113.7,297.66 C113.7,297.66 120.52,298.13 129.11,296.82 Z" id="Path" fill="url(#linearGradient-34)"></path>
                    <path d="M125.19,314.38 L128.83,304.67 C128.83,304.67 128.84,304.68 128.85,304.69 L128.83,305.42 C128.83,305.42 127.06,314.29 125.56,315.32 C124.07,316.35 118.37,317.94 115.57,317.84 C114.19,317.79 113.17,317.7 112.49,317.62 C118.29,316.86 125.19,314.38 125.19,314.38 Z" id="Path" fill="#000000"></path>
                    <path d="M54.07,242.23 L54.96,248.91 L52.16,259.84 L37.12,265.35 C37.12,265.35 34.69,258.16 34.69,257.79 C34.69,257.42 34.97,247.89 34.97,247.89 C34.97,247.89 33.48,244.06 33.57,241.82 C33.66,239.58 36,233.79 36,233.79 L37.68,232.67 C37.68,232.67 40.76,237.25 44.87,239.39 C48.98,241.53 54.07,242.23 54.07,242.23 Z" id="Path" fill="url(#linearGradient-35)"></path>
                    <path d="M33.57,241.81 C33.66,239.57 36,233.78 36,233.78 L37.68,232.66 C37.68,232.66 40.76,237.24 44.87,239.38 C48.98,241.53 54.07,242.23 54.07,242.23 L54.96,248.91 C54.96,248.91 39.28,248.91 34.87,247.59 C34.52,246.66 33.49,243.69 33.57,241.81 Z" id="Path" fill="url(#linearGradient-36)"></path>
                    <path d="M92.03,246.86 C94.83,247.14 101.28,244.48 101.28,244.48 C101.28,244.48 102.26,239.16 102.82,238.04 C103.38,236.92 106.74,234.54 108,235.24 C109.26,235.94 108.14,243.37 108.14,243.37 C108.14,243.37 109.4,244.77 110.8,246.59 C111.84,247.95 112.5,250.24 112.76,251.32 L106.94,259.76 L98.18,265.08 L92.21,263.94 C88.98,260.13 85.28,255.55 84.74,254.01 C83.76,251.21 84.04,243.5 84.04,243.5 C84.04,243.5 89.23,246.58 92.03,246.86 Z" id="Path" fill="url(#linearGradient-37)"></path>
                    <polygon id="Path" fill="#FFFFFF" opacity="0.4" points="90.91 246.58 98.95 265.22 104.78 275.58 97.21 269.69 84.75 254 84.16 244.34"></polygon>
                    <path d="M54.95,248.91 C54.95,248.91 56.35,250.31 54.58,256.66 C52.81,263.01 48.88,277.11 48.88,277.11 C48.88,277.11 48.97,282.43 48.97,283.37 C48.97,284.3 51.4,290.94 51.4,291.96 C51.4,292.99 50.84,294.95 49.81,295.88 C48.78,296.81 47.19,298.49 47.19,298.49 L42.99,297.65 L30.66,289.62 L28.23,286.07 C28.23,286.07 33.55,277.85 34.21,275.05 C34.86,272.25 35.61,260.76 35.61,260.76 L37.1,265.33 L52.14,259.82 L54.95,248.91 Z" id="Path" fill="url(#linearGradient-38)"></path>
                    <path d="M47.2,298.51 C47.2,298.51 47.29,301.59 45.33,302.71 C43.37,303.83 42.62,303.74 41.31,303.74 C40,303.74 32.72,303.93 32.72,303.93 C32.72,303.93 17.96,308.23 13.85,308.04 C9.74,307.85 6.94,306.55 6.94,306.55 C6.94,306.55 7.03,304.12 10.3,301.69 C13.57,299.26 25.06,293.47 27.2,291.7 C29.35,289.93 30,288.62 30,288.62 L30.65,289.65 L42.98,297.68 L47.2,298.51 Z" id="Path" fill="url(#linearGradient-39)"></path>
                    <path d="M41.88,301.49 C44.29,301.05 45.73,299.13 46.24,298.31 L47.2,298.5 C47.2,298.5 47.29,301.58 45.33,302.7 C43.37,303.82 42.62,303.73 41.31,303.73 C40,303.73 32.72,303.92 32.72,303.92 C32.72,303.92 17.96,308.22 13.85,308.03 C13.1,308 12.39,307.92 11.74,307.83 C15.49,307.03 39.04,302.01 41.88,301.49 Z" id="Path" fill="#000000"></path>
                    <g id="Path">
                        <path d="M67.06,116.33 L48.59,122.13 C48.59,122.13 46.22,129.59 43.75,133.99 C41.27,138.39 40.65,140.35 40.65,140.35 L60.64,135.89 C60.64,135.89 61.79,125.46 63.75,121.32 C65.7,117.2 67.06,116.33 67.06,116.33 Z" fill="url(#linearGradient-40)"></path>
                        <path d="M63.32,123.35 C63.32,123.35 59.61,123.47 56.46,121.82 C53.31,120.17 53.31,120.17 53.31,120.17 C53.31,120.17 57.98,114.31 63.44,113.45 C68.9,112.59 75.75,113.24 75.75,113.24 L73.75,114.54 L66.21,116.65 C66.2,116.66 63.61,121.07 63.32,123.35 Z" fill="url(#linearGradient-41)"></path>
                        <path d="M108.27,143.91 C108.27,143.91 102.03,157.87 101.04,160.36 C100.05,162.85 99.47,165.45 99.47,165.45 C99.47,165.45 88.32,166.83 75.74,164.47 C63.16,162.11 59.21,160.13 59.21,160.13 C59.21,160.13 58.37,153.81 58.97,146.97 C61.39,119.48 66.92,116.03 66.92,116.03 L72.45,114.74 L98.57,120.97 L108.27,143.91 Z" fill="url(#linearGradient-42)"></path>
                        <path d="M71.49,120.18 L73.21,114.23 L66.91,116.01 C66.91,116.01 61.39,119.47 58.96,146.95 C58.36,153.79 59.2,160.11 59.2,160.11 C59.2,160.11 60.86,160.94 65.44,162.17 C67.13,148.89 71.49,120.18 71.49,120.18 Z" fill="#FFFFFF" opacity="0.5"></path>
                        <path d="M99.38,168.34 L99.46,165.45 C99.46,165.45 86.98,166.9 73.53,164 C60.08,161.1 59.19,160.13 59.19,160.13 L57.99,162.85 C58,162.85 76.34,169.59 99.38,168.34 Z" fill="#000000"></path>
                        <path d="M98.58,110.16 C98.58,110.16 101.17,104.39 101.91,103.14 C102.65,101.89 107.97,91.55 106.24,85.63 C104.5,79.71 97.46,76.48 91.89,76.95 C86.32,77.43 84.88,79.45 84.88,79.45 L84.19,76.73 C84.19,76.73 79.98,79.62 77.5,83.97 C75.02,88.32 74.12,91.17 74.12,91.17 L69.19,90.76 C69.19,90.76 72.78,105.64 74.06,106.96 C75.34,108.29 77.23,109.5 77.23,109.5 L74.4,113.36 C74.4,113.37 89.87,113.53 98.58,110.16 Z" fill="url(#linearGradient-43)"></path>
                        <path d="M98.58,110.16 C89.87,113.54 74.4,113.37 74.4,113.37 L77.23,109.51 C77.23,109.51 93.26,108.4 99.92,107.22 C99.2,108.77 98.58,110.16 98.58,110.16 Z" fill="#000000"></path>
                        <path d="M99.19,86.01 C100.08,85.17 104.74,86.84 102.45,90.49 C100.62,93.4 92.33,100.38 92.33,100.38 L77.23,109.51 C77.23,109.51 75.34,108.3 74.06,106.97 C72.78,105.64 69.19,90.77 69.19,90.77 L74.12,91.18 L91.28,92.67 C91.28,92.67 98.75,86.42 99.19,86.01 Z" fill="url(#linearGradient-44)"></path>
                        <path d="M101.64,89.46 C101.89,88.57 101.37,87.64 100.48,87.39 C99.59,87.14 98.66,87.66 98.41,88.55 C98.16,89.44 98.68,90.37 99.58,90.62 C100.46,90.87 101.39,90.35 101.64,89.46 Z" fill="#1A0C4D"></path>
                        <polygon fill="#000000" points="87.44 92.1 87.54 90.96 74.62 90.1 74.12 91.17"></polygon>
                        <path d="M98.77,110.33 L104.69,116.21 C104.69,116.21 92.25,122.18 84.26,122.12 C76.27,122.06 70.77,120.16 70.77,120.16 L72.44,114.73 L74.4,113.36 C74.4,113.36 85.6,112.87 89.25,112.38 C91.65,112.06 98.58,110.15 98.58,110.15 L98.77,110.33 Z" fill="url(#linearGradient-45)"></path>
                        <path d="M104.69,116.21 C104.69,116.21 117.43,118.48 119.91,122.66 C123.17,128.16 121.35,132.3 121.35,132.3 C121.35,132.3 120.9,131.3 118.89,130.96 C116.88,130.61 115.7,130.65 115.7,130.65 C115.7,130.65 111,131.59 110.09,135.62 C109.18,139.66 109.9,144.08 109.9,144.08 C109.9,144.08 101.76,142.93 96.84,140.37 C91.44,137.55 88.41,127.58 90.73,124.23 C93.05,120.88 93.76,120.42 93.76,120.42 C93.76,120.42 102.24,117.93 104.69,116.21 Z" fill="url(#linearGradient-46)"></path>
                        <path d="M120.73,131.91 L121.65,134.86 C121.65,134.86 112.03,137.76 111.87,137.57 C111.71,137.38 110.66,134.1 110.66,134.1 L119.63,131.16 L120.73,131.91 Z" fill="url(#linearGradient-47)"></path>
                        <path d="M119.14,131.1 C118.89,130.96 116.8,130.37 114.42,131.08 C112.04,131.79 110.87,133.87 110.87,133.87 L119.14,131.1 Z" fill="url(#linearGradient-48)"></path>
                        <polygon fill="url(#linearGradient-49)" points="121.19 134.95 123.51 140.4 114.8 142.69 112.46 137.52"></polygon>
                        <polygon fill="url(#linearGradient-50)" points="123.05 140.49 125.28 145.77 117.6 148.27 115.22 142.73"></polygon>
                        <path d="M125.61,147.97 C125.61,147.97 125.14,148.35 124.16,149.53 C123.17,150.71 123.08,153.37 123.16,153.61 C123.24,153.85 119.57,152.68 119.57,152.68 C119.57,152.68 118.22,149.97 118.19,149.31 C118.16,148.65 124.86,146.02 124.86,146.02 L125.61,147.97 Z" fill="url(#linearGradient-51)"></path>
                        <path d="M131.56,161.5 C131.56,161.5 125.9,156.78 124.5,155.3 C123.1,153.82 123.15,153.61 123.15,153.61 C123.15,153.61 123.03,151.18 124.15,149.53 C125.27,147.88 126.61,147.75 126.61,147.75 C126.61,147.75 130.27,149.5 131.56,161.5 Z" fill="url(#linearGradient-52)"></path>
                        <path d="M119.56,152.68 C119.56,152.68 116.73,151.89 114.05,151.57 C111.37,151.26 110.58,151.76 110.63,151.56 C110.69,151.36 107.49,145.88 107.49,145.88 L108.26,143.91 L109.89,144.08 C109.89,144.08 109.26,140.63 109.67,138.13 C110.08,135.63 110.65,134.11 110.65,134.11 C110.65,134.11 117.89,141.23 117.82,141.5 C117.74,141.77 121.64,148.39 121.56,148.66 C121.48,148.93 121.64,153.05 121.3,152.95 C120.97,152.86 119.56,152.68 119.56,152.68 Z" fill="url(#linearGradient-53)"></path>
                        <path d="M131.56,161.5 C131.56,161.5 131.76,164.17 131.08,165.29 C130.4,166.41 126.75,171.13 126.75,171.13 C126.75,171.13 122.72,171.24 120.93,170.88 C119.14,170.52 117.83,170.01 117.83,170.01 C117.83,170.01 126.6,165.99 127.19,164.63 C127.79,163.27 128.32,160.87 128.32,160.87 L125.25,156.01 L131.56,161.5 Z" fill="url(#linearGradient-54)"></path>
                        <path d="M118.22,169.91 C118.02,169.85 114.6,170.35 113.32,169.99 C112.04,169.63 109.29,167.77 109.29,167.77 C109.29,167.77 113.42,165.51 113.75,164.58 C114.08,163.65 115.47,159.75 115.09,158.77 C114.71,157.79 110.64,151.56 110.64,151.56 C110.64,151.56 114.67,151.45 117.37,152.21 C120.07,152.97 123.16,153.61 123.16,153.61 L128.32,160.88 L127.19,164.64 L118.22,169.91 Z" fill="url(#linearGradient-55)"></path>
                        <path d="M110.95,166.38 L105.97,166.93 C105.97,166.93 101,163.26 100.72,162.92 C100.43,162.57 100.45,161.79 100.71,161.56 C100.97,161.33 101.33,161.33 101.33,161.33 C101.33,161.33 100.13,160.22 100.63,159.54 C101.13,158.86 101.43,158.77 101.43,158.77 C101.43,158.77 99.61,157.9 100.12,156.78 C100.63,155.67 100.63,155.67 100.63,155.67 C100.63,155.67 99.77,154.99 99.69,154.33 C99.61,153.67 99.61,153.67 99.61,153.67 L103.67,152.36 L107.93,150.45 C107.93,150.45 110.89,149.99 111.16,150.4 C111.43,150.81 116.11,157.29 116.11,157.29 L115.06,163.44 C115.06,163.43 111.74,166.04 110.95,166.38 Z" fill="#1A0C4D"></path>
                        <polygon fill="#000000" points="109.55 166.57 110.84 171.89 110.45 173 107.43 172.37 105.98 166.93"></polygon>
                        <path d="M110.84,171.89 C110.84,171.89 112.59,173.37 112.7,175.61 C112.81,177.85 111.88,179.59 109.93,179.69 C107.98,179.79 107.09,177.53 106.96,175.72 C106.83,173.91 107.43,172.38 107.43,172.38 L110.45,173 L110.84,171.89 Z" fill="#000000"></path>
                        <path d="M109.07,150.18 C109.07,150.18 111.01,147 109.95,146.93 C108.89,146.86 97.07,151.14 96.93,151.47 C96.79,151.8 98.66,153.47 99.95,153.45 C101.25,153.44 109.07,150.18 109.07,150.18 Z" fill="#000000"></path>
                        <path d="M105.91,148.17 C105.91,148.17 70.63,5.66 69.88,4.07 C69.13,2.49 67.96,0.53 67.96,0.53 C67.96,0.53 67.36,2.77 67.78,5.57 C68.2,8.37 101.43,149.75 101.43,149.75 L105.91,148.17 Z" fill="url(#linearGradient-56)"></path>
                        <polyline fill="#FFFFFF" points="103.85 148.99 67.96 0.54 69.96 3.34 105.91 148.17"></polyline>
                        <path d="M57.24,93.28 C57.24,93.28 42.15,86.87 36.36,84.59 C30.57,82.31 25.55,81.56 25.55,81.56 C25.55,81.56 0.73,167.74 0.31,170.02 C-0.11,172.3 0.69,174.48 2.03,174.75 C3.37,175.02 18.11,174.14 31.34,159.98 C38.1,152.75 45.42,133.86 51.07,116.82 C56.72,99.78 57.24,93.28 57.24,93.28 Z" fill="url(#linearGradient-57)"></path>
                        <path d="M24.08,86.15 C24.08,86.15 29.24,86.85 36.99,89.91 C44.73,92.96 49.9,95.78 49.9,95.78 C49.9,95.78 44.03,120.66 39.34,132.63 C34.65,144.6 26.2,159.15 26.2,159.15 C26.2,159.15 38.64,143.89 45.21,121.6 C51.78,99.31 52.48,95.55 52.48,95.55 C52.48,95.55 39.86,87.35 24.59,84.99" fill="#FFFFFF" opacity="0.7"></path>
                        <path d="M1.04,167.31 C1.11,167.9 1.22,168.46 1.39,168.91 C2.15,170.87 10.43,170.46 20.76,163.56 C31.09,156.65 36.64,143.07 40.6,133.61 C44.56,124.15 52.47,95.54 52.47,95.54 C52.47,95.54 45.2,91.54 38.45,89.21 C34.03,87.69 28.13,85.98 24.58,84.98 C25.21,82.8 25.56,81.56 25.56,81.56 C25.56,81.56 30.58,82.31 36.37,84.59 C42.16,86.87 57.25,93.28 57.25,93.28 C57.25,93.28 56.74,99.78 51.08,116.82 C45.43,133.86 38.11,152.75 31.35,159.98 C18.12,174.14 3.38,175.02 2.04,174.75 C0.7,174.48 -0.1,172.3 0.32,170.02 C0.36,169.81 0.61,168.86 1.04,167.31 Z" fill="url(#linearGradient-58)"></path>
                        <path d="M99.38,168.34 C99.38,168.34 101.92,173.27 102.97,177.35 C104.01,181.42 104.76,184.98 104.76,184.98 C104.76,184.98 90.27,188.92 71.3,186.51 C52.33,184.1 48.35,177.02 48.35,177.02 L51.42,171.77 L58.94,163.11 C58.95,163.11 75.32,169.59 99.38,168.34 Z" fill="url(#linearGradient-59)"></path>
                        <path d="M48.84,176.19 C55.97,183.21 68.61,185.97 83.54,185.82 C97.62,185.67 103.39,183.72 104.4,183.33 C104.63,184.35 104.76,184.97 104.76,184.97 C104.76,184.97 90.27,188.91 71.3,186.5 C52.33,184.09 48.35,177.01 48.35,177.01 L48.84,176.19 Z" fill="url(#linearGradient-60)"></path>
                    </g>
                </g>
                <g id="Group" transform="translate(457.000000, 204.000000)">
                    <path d="M30.36,131.86 C30.36,131.86 32.6,146.99 32.88,149.65 C33.16,152.31 33.02,154.97 33.02,154.97 C33.02,154.97 43.39,159.31 56.14,160.43 C68.89,161.55 73.23,160.71 73.23,160.71 C73.23,160.71 75.61,154.83 77.01,148.1 C78.41,141.38 77.71,116.16 77.71,116.16 L72.74,113.43 L45.91,112.38 L30.36,131.86 Z" id="Path" fill="url(#linearGradient-61)"></path>
                    <path d="M78.7,180.61 L78.25,180.56 C76.05,181.98 69.32,185.05 54.46,182.85 C43.02,181.16 33.79,177.67 28.28,175.18 L27.98,175.15 C27.98,175.15 26.16,183.14 26.02,186.5 C25.88,189.86 24.48,217.74 24.48,217.74 C24.48,217.74 37.93,224.75 54.6,225.16 C71.27,225.58 92.57,222.92 92.57,222.92 L78.7,180.61 Z" id="Path" fill="url(#linearGradient-62)"></path>
                    <path d="M69.14,183.07 L71.8,193.02 L85.25,208.99 L93.1,208.99 C93.1,208.99 85.25,190.64 82.45,185.88 C79.65,181.12 78.39,180 78.39,180 C78.39,180 74.04,182.93 69.14,183.07 Z" id="Path" fill="url(#linearGradient-63)"></path>
                    <path d="M72.9,192.65 L70.62,182.93 C70.13,183 69.63,183.05 69.13,183.06 L71.79,193.01 L85.24,208.98 L93.09,208.98 C93.09,208.98 92.98,208.73 92.79,208.27 L85.58,207.51 L72.9,192.65 Z" id="Path" fill="#FFFFFF"></path>
                    <path d="M54.46,182.38 C43.14,180.7 33.97,177.27 28.44,174.78 L27.98,174.67 C27.98,174.67 26.72,178.17 26.3,181.95 C25.88,185.73 24.9,206.19 24.9,206.19 L38.07,213.05 L64.41,193.44 L65.81,183.35 L64.87,183.13 C61.95,183.19 58.51,182.98 54.46,182.38 Z" id="Path" fill="url(#linearGradient-64)"></path>
                    <path d="M38.33,211.11 L25.02,203.92 C24.95,205.33 24.91,206.19 24.91,206.19 L38.08,213.05 L64.42,193.44 L65.82,183.35 L64.88,183.13 L63.06,192.32" id="Path" fill="#FFFFFF"></path>
                    <path d="M27.42,219.13 L27.42,238.46 C27.42,238.46 36.11,241.96 40.59,241.12 C45.07,240.28 47.45,238.04 47.45,238.04 L49.410006,224.73 C49.42,224.74 36.95,223.76 27.42,219.13 Z" id="Path" fill="#000000"></path>
                    <path d="M69.17,224.88 C69.17,224.88 77.16,236.09 77.44,236.79 C77.72,237.49 86.13,235.11 89.21,232.31 C92.29,229.51 93.83,227.55 93.83,227.55 L91.31,222.65 L69.17,224.88 Z" id="Path" fill="#000000"></path>
                    <path d="M18.46,254.58 L26.73,270.13 L34.3,264.25 C34.3,264.25 45.79,251.36 46.77,248.56 C47.75,245.76 47.47,238.05 47.47,238.05 C47.47,238.05 42.29,241.13 39.48,241.41 C36.68,241.69 30.23,239.03 30.23,239.03 C30.23,239.03 29.25,233.71 28.69,232.59 C28.13,231.47 24.77,229.09 23.51,229.79 C22.25,230.49 23.37,237.92 23.37,237.92 C23.37,237.92 22.11,239.32 20.71,241.14 C19.31,242.96 18.61,246.46 18.61,246.46 L18.46,254.58 Z" id="Path" fill="url(#linearGradient-65)"></path>
                    <path d="M18.55,254.2 L26.72,270.12 C26.72,270.12 24.43,273.81 21.63,279.88 C18.83,285.95 19.76,292.11 19.76,292.11 C19.76,292.11 11.91,292.67 9.21,292.11 C6.5,291.55 1.83,291.36 1.83,291.36 L0.24,290.24 L0.05,283.23 C0.05,283.23 7.9,277.53 9.67,274.73 C11.44,271.93 12.29,265.95 13.78,259.6 C15.27,253.25 18.64,246.99 18.64,246.99 L18.55,254.2 Z" id="Path" fill="url(#linearGradient-66)"></path>
                    <path d="M2.39,291.38 L2.67,299.97 C2.67,299.97 4.44,308.84 5.94,309.87 C7.43,310.9 13.13,312.49 15.93,312.39 C18.73,312.3 20.04,312.02 20.04,312.02 C20.04,312.02 23.12,307.26 22.66,305.39 C22.19,303.52 19.39,297.73 18.92,296.24 C18.45,294.75 17.8,292.22 17.8,292.22 C17.8,292.22 10.98,292.68 2.39,291.38 Z" id="Path" fill="url(#linearGradient-67)"></path>
                    <path d="M6.31,308.93 L2.67,299.22 C2.67,299.22 2.66,299.23 2.65,299.24 L2.67,299.97 C2.67,299.97 4.44,308.84 5.94,309.87 C7.43,310.9 13.13,312.49 15.93,312.39 C17.31,312.34 18.33,312.25 19.01,312.17 C13.21,311.41 6.31,308.93 6.31,308.93 Z" id="Path" fill="#000000"></path>
                    <path d="M77.43,236.79 L76.54,243.47 L79.34,254.4 L94.38,259.91 C94.38,259.91 96.81,252.72 96.81,252.35 C96.81,251.98 96.53,242.45 96.53,242.45 C96.53,242.45 98.02,238.62 97.93,236.38 C97.84,234.14 95.5,228.35 95.5,228.35 L93.82,227.23 C93.82,227.23 90.74,231.81 86.63,233.95 C82.52,236.09 77.43,236.79 77.43,236.79 Z" id="Path" fill="url(#linearGradient-68)"></path>
                    <path d="M97.94,236.36 C97.85,234.12 95.51,228.33 95.51,228.33 L93.83,227.21 C93.83,227.21 90.75,231.79 86.64,233.93 C82.53,236.08 77.44,236.78 77.44,236.78 L76.55,243.46 C76.55,243.46 92.23,243.46 96.64,242.14 C96.98,241.22 98.01,238.24 97.94,236.36 Z" id="Path" fill="url(#linearGradient-69)"></path>
                    <path d="M39.47,241.41 C36.67,241.69 30.22,239.03 30.22,239.03 C30.22,239.03 29.24,233.71 28.68,232.59 C28.12,231.47 24.76,229.09 23.5,229.79 C22.24,230.49 23.36,237.92 23.36,237.92 C23.36,237.92 22.1,239.32 20.7,241.14 C19.66,242.5 19,244.79 18.74,245.87 L24.56,254.31 L33.32,259.63 L39.29,258.49 C42.52,254.68 46.22,250.1 46.76,248.56 C47.74,245.76 47.46,238.05 47.46,238.05 C47.46,238.05 42.27,241.13 39.47,241.41 Z" id="Path" fill="url(#linearGradient-70)"></path>
                    <path d="M76.55,243.46 C76.55,243.46 75.15,244.86 76.92,251.21 C78.69,257.56 82.62,271.66 82.62,271.66 C82.62,271.66 82.53,276.98 82.53,277.92 C82.53,278.85 80.1,285.49 80.1,286.51 C80.1,287.53 80.66,289.5 81.69,290.43 C82.72,291.36 84.31,293.04 84.31,293.04 L88.51,292.2 L100.84,284.17 L103.27,280.62 C103.27,280.62 97.95,272.4 97.29,269.6 C96.64,266.8 95.89,255.31 95.89,255.31 L94.4,259.88 L79.36,254.37 L76.55,243.46 Z" id="Path" fill="url(#linearGradient-71)"></path>
                    <path d="M84.3,293.06 C84.3,293.06 84.21,296.14 86.17,297.26 C88.13,298.38 88.88,298.29 90.19,298.29 C91.5,298.29 98.78,298.48 98.78,298.48 C98.78,298.48 113.54,302.78 117.65,302.59 C121.76,302.4 124.56,301.1 124.56,301.1 C124.56,301.1 124.47,298.67 121.2,296.24 C117.93,293.81 106.44,288.02 104.3,286.25 C102.15,284.48 101.5,283.17 101.5,283.17 L100.85,284.2 L88.52,292.23 L84.3,293.06 Z" id="Path" fill="url(#linearGradient-72)"></path>
                    <path d="M89.62,296.05 C87.21,295.61 85.77,293.69 85.26,292.87 L84.3,293.06 C84.3,293.06 84.21,296.14 86.17,297.26 C88.13,298.38 88.88,298.29 90.19,298.29 C91.5,298.29 98.78,298.48 98.78,298.48 C98.78,298.48 113.54,302.78 117.65,302.59 C118.4,302.56 119.11,302.48 119.76,302.39 C116.01,301.58 92.46,296.56 89.62,296.05 Z" id="Path" fill="#000000"></path>
                    <path d="M32.33,157.77 L33.03,154.97 C33.03,154.97 44.66,159.73 58.39,160.57 C72.12,161.41 73.24,160.71 73.24,160.71 L73.66,163.65 C73.65,163.66 54.18,165.2 32.33,157.77 Z" id="Path" fill="#000000"></path>
                    <path d="M48.81,101.97 C48.81,101.97 47.88,95.71 47.5,94.31 C47.13,92.91 44.79,81.51 48.06,76.28 C51.33,71.05 58.99,69.84 64.22,71.8 C69.45,73.76 70.29,76.1 70.29,76.1 L71.69,73.67 C71.69,73.67 74.96,77.59 76.17,82.45 C77.38,87.31 77.48,90.3 77.48,90.3 L82.34,91.23 C82.34,91.23 74.87,104.59 73.28,105.52 C71.69,106.45 69.54,107.11 69.54,107.11 L71.22,111.59 C71.22,111.59 56.28,107.57 48.81,101.97 Z" id="Path" fill="url(#linearGradient-73)"></path>
                    <path d="M48.81,101.97 C56.28,107.57 71.23,111.59 71.23,111.59 L69.55,107.11 C69.55,107.11 54.42,101.71 48.32,98.78 C48.59,100.47 48.81,101.97 48.81,101.97 Z" id="Path" fill="#000000"></path>
                    <path d="M54.74,78.55 C54.11,77.5 49.17,77.85 50.4,81.98 C51.38,85.27 57.47,94.24 57.47,94.24 L69.54,107.1 C69.54,107.1 71.69,106.45 73.28,105.51 C74.87,104.58 82.34,91.22 82.34,91.22 L77.48,90.29 L60.55,87.09 C60.55,87.1 55.05,79.06 54.74,78.55 Z" id="Path" fill="url(#linearGradient-74)"></path>
                    <path d="M51.45,81.21 C51.45,80.28 52.2,79.53 53.13,79.53 C54.06,79.53 54.81,80.28 54.81,81.21 C54.81,82.14 54.06,82.89 53.13,82.89 C52.2,82.89 51.45,82.14 51.45,81.21 Z" id="Path" fill="#1A0C4D"></path>
                    <polygon id="Path" fill="#000000" points="64.41 87.59 64.62 86.47 77.29 89.13 77.48 90.3"></polygon>
                    <path d="M48.58,102.09 L41.3,106.15 C41.3,106.15 51.67,115.26 59.37,117.36 C67.08,119.46 72.89,119.11 72.89,119.11 L72.75,113.44 L71.23,111.6 C71.23,111.6 60.58,108.1 57.2,106.65 C54.98,105.7 48.82,101.98 48.82,101.98 L48.58,102.09 Z" id="Path" fill="url(#linearGradient-75)"></path>
                    <path d="M41.29,106.15 C41.29,106.15 28.41,104.9 24.9,108.25 C20.28,112.66 20.91,117.15 20.91,117.15 C20.91,117.15 21.61,116.31 23.64,116.52 C25.67,116.73 26.79,117.08 26.79,117.08 C26.79,117.08 31.06,119.25 30.85,123.38 C30.64,127.51 28.75,131.58 28.75,131.58 C28.75,131.58 32.55,132.05 38.09,131.63 C43.62,131.21 53.9,121.49 52.57,117.64 C51.24,113.79 50.68,113.16 50.68,113.16 C50.68,113.16 43.18,108.46 41.29,106.15 Z" id="Path" fill="url(#linearGradient-76)"></path>
                    <path d="M21.61,116.94 L19.93,119.53 C19.93,119.53 28.41,124.92 28.62,124.78 C28.83,124.64 30.72,121.77 30.72,121.77 L22.87,116.52 L21.61,116.94 Z" id="Path" fill="url(#linearGradient-77)"></path>
                    <path d="M23.36,116.59 C23.64,116.52 25.81,116.52 27.91,117.85 C30.01,119.18 30.57,121.49 30.57,121.49 L23.36,116.59 Z" id="Path" fill="url(#linearGradient-78)"></path>
                    <polygon id="Path" fill="url(#linearGradient-79)" points="20.35 119.74 16.63 124.36 24.41 128.91 28.05 124.57"></polygon>
                    <polygon id="Path" fill="url(#linearGradient-80)" points="17.05 124.57 13.48 129.05 20.21 133.54 23.99 128.85"></polygon>
                    <path d="M12.57,131.09 C12.57,131.09 12.92,131.58 13.55,132.98 C14.18,134.38 13.55,136.97 13.41,137.18 C13.27,137.39 17.12,137.25 17.12,137.25 C17.12,137.25 19.15,135.01 19.36,134.38 C19.57,133.75 13.83,129.41 13.83,129.41 L12.57,131.09 Z" id="Path" fill="url(#linearGradient-81)"></path>
                    <path d="M3.19,142.5 C3.19,142.5 9.91,139.49 11.67,138.44 C13.42,137.39 13.42,137.18 13.42,137.18 C13.42,137.18 14.19,134.87 13.56,132.98 C12.93,131.09 11.67,130.6 11.67,130.6 C11.67,130.6 7.67,131.3 3.19,142.5 Z" id="Path" fill="url(#linearGradient-82)"></path>
                    <path d="M17.12,137.25 C17.12,137.25 20.06,137.25 22.72,137.67 C25.38,138.09 26.01,138.79 26.01,138.58 C26.01,138.37 30.56,133.96 30.56,133.96 L30.35,131.86 L28.74,131.58 C28.74,131.58 30.28,128.43 30.56,125.91 C30.84,123.39 30.7,121.78 30.7,121.78 C30.7,121.78 21.8,126.68 21.8,126.96 C21.8,127.24 16.27,132.56 16.27,132.84 C16.27,133.12 15.01,137.04 15.36,137.04 C15.72,137.04 17.12,137.25 17.12,137.25 Z" id="Path" fill="url(#linearGradient-83)"></path>
                    <path d="M3.19,142.5 C3.19,142.5 2.28,145.02 2.63,146.28 C2.98,147.54 5.22,153.07 5.22,153.07 C5.22,153.07 9.07,154.26 10.89,154.4 C12.71,154.54 14.11,154.4 14.11,154.4 C14.11,154.4 6.76,148.17 6.55,146.69 C6.34,145.22 6.48,142.77 6.48,142.77 L10.75,138.92 L3.19,142.5 Z" id="Path" fill="url(#linearGradient-84)"></path>
                    <path d="M13.76,154.2 C13.97,154.2 17.12,155.6 18.45,155.6 C19.78,155.6 22.93,154.55 22.93,154.55 C22.93,154.55 19.57,151.26 19.5,150.28 C19.43,149.3 19.15,145.17 19.78,144.33 C20.41,143.49 26.01,138.59 26.01,138.59 C26.01,138.59 22.16,137.4 19.36,137.4 C16.56,137.4 13.41,137.19 13.41,137.19 L6.48,142.79 L6.55,146.71 L13.76,154.2 Z" id="Path" fill="url(#linearGradient-85)"></path>
                    <path d="M23.01,154.27 L27.77,155.81 C27.77,155.81 33.37,153.22 33.72,152.94 C34.07,152.66 34.21,151.89 34,151.61 C33.79,151.33 33.44,151.26 33.44,151.26 C33.44,151.26 34.84,150.42 34.49,149.65 C34.14,148.88 33.86,148.74 33.86,148.74 C33.86,148.74 35.82,148.25 35.54,147.06 C35.26,145.87 35.26,145.87 35.26,145.87 C35.26,145.87 36.24,145.38 36.45,144.75 C36.66,144.12 36.66,144.12 36.66,144.12 L32.95,142.02 L29.17,139.29 C29.17,139.29 26.37,138.24 26.02,138.59 C25.67,138.94 19.79,144.33 19.79,144.33 L19.58,150.56 C19.58,150.56 22.31,153.78 23.01,154.27 Z" id="Path" fill="#1A0C4D"></path>
                    <polygon id="Path" fill="#000000" points="24.34 154.74 22 159.69 22.17 160.86 25.25 160.86 27.77 155.81"></polygon>
                    <path d="M22,159.69 C22,159.69 19.99,160.79 19.43,162.96 C18.87,165.13 19.43,167.02 21.32,167.51 C23.21,168 24.54,165.97 25.03,164.22 C25.52,162.47 25.24,160.86 25.24,160.86 L22.16,160.86 L22,159.69 Z" id="Path" fill="#000000"></path>
                    <path d="M28.12,138.79 C28.12,138.79 26.86,135.29 27.91,135.43 C28.96,135.57 39.68,142.15 39.75,142.5 C39.82,142.85 37.65,144.11 36.39,143.83 C35.13,143.55 28.12,138.79 28.12,138.79 Z" id="Path" fill="#000000"></path>
                    <path d="M31.62,137.46 C31.62,137.46 94.94,5 95.99,3.6 C97.04,2.2 98.58,0.52 98.58,0.52 C98.58,0.52 98.72,2.83 97.74,5.49 C96.76,8.15 35.68,139.91 35.68,139.91 L31.62,137.46 Z" id="Path" fill="url(#linearGradient-86)"></path>
                    <polyline id="Path" fill="#FFFFFF" points="33.48 138.67 98.59 0.52 96.06 2.86 31.62 137.46"></polyline>
                    <path d="M73.54,100.81 C73.54,100.81 89.8,98.71 95.99,98.08 C102.18,97.45 107.21,98.08 107.21,98.08 C107.21,98.08 107.84,187.76 107.63,190.07 C107.42,192.38 106.06,194.27 104.69,194.16 C103.33,194.06 89.38,189.23 80.46,172.03 C75.91,163.24 73.96,143.08 73.12,125.14 C72.28,107.2 73.54,100.81 73.54,100.81 Z" id="Path" fill="url(#linearGradient-87)"></path>
                    <path d="M106.86,102.84 C106.86,102.84 95.59,102.53 89.65,103.47 C83.7,104.41 79.48,105.35 79.48,105.35 C79.48,105.35 77.75,117.88 80.26,143.21 C82.45,165.27 87.14,174.82 87.14,174.82 C87.14,174.82 81.51,169.66 78.85,145.09 C75.55,114.6 77.53,104.27 77.53,104.27 C77.53,104.27 94.01,100.58 107.24,101.64" id="Path" fill="#FFFFFF" opacity="0.7"></path>
                    <path d="M107.67,187.26 C107.45,187.81 107.19,188.32 106.9,188.7 C105.64,190.38 97.77,187.76 89.7,178.32 C81.62,168.88 79.95,154.3 78.69,144.13 C77.43,133.96 77.54,104.27 77.54,104.27 C77.54,104.27 85.62,102.38 92.75,101.96 C97.41,101.69 103.56,101.64 107.25,101.63 C107.24,99.36 107.23,98.08 107.23,98.08 C107.23,98.08 102.2,97.45 96.01,98.08 C89.82,98.71 73.56,100.81 73.56,100.81 C73.56,100.81 72.3,107.21 73.14,125.14 C73.98,143.08 75.93,163.24 80.48,172.03 C89.4,189.23 103.35,194.06 104.71,194.16 C106.07,194.27 107.44,192.38 107.65,190.07 C107.65,189.85 107.66,188.87 107.67,187.26 Z" id="Path" fill="url(#linearGradient-88)"></path>
                    <path d="M32.33,157.77 C32.33,157.77 28.55,161.83 26.45,165.48 C24.35,169.12 22.67,172.34 22.67,172.34 C22.67,172.34 35.56,180.04 54.47,182.85 C73.38,185.65 79.13,179.91 79.13,179.91 L77.59,174.03 L72.69,163.66 C72.67,163.66 55.16,165.48 32.33,157.77 Z" id="Path" fill="url(#linearGradient-89)"></path>
                    <path d="M78.87,178.98 C70.11,183.82 57.2,183.06 42.86,178.88 C29.34,174.94 24.31,171.5 23.45,170.85 C22.96,171.77 22.66,172.34 22.66,172.34 C22.66,172.34 35.55,180.04 54.46,182.85 C73.37,185.65 79.12,179.91 79.12,179.91 L78.87,178.98 Z" id="Path" fill="url(#linearGradient-90)"></path>
                    <path d="M40.59,241.13 L34.8,258.84 L26.35,269.17 L20.01,284.19 L26.71,270.14 L34.28,264.26 C34.28,264.26 38.83,258.92 39.28,258.5 C39.73,258.07 47.08,247.43 47.08,247.43 L47.45,238.06 L40.59,241.13 Z" id="Path" fill="#FFFFFF" opacity="0.4"></path>
                </g>
            </g>
        </g>
    </g>
</svg>