<svg id="Layer_1" data-name="Layer 1" xmlns="http://www.w3.org/2000/svg" viewBox="0 0 923.08 293.71"><defs><style>.cls-1{fill:#fff;}</style></defs><path class="cls-1" d="M288,519.45l-13.35-34.38,129,6.64-5.79,55Zm30.9-266.3L138.46,338.4l27.91,128.46h36.81L196.83,375l5.64-1.75,22.14,93.64h38.24l-1.42-111.94,5.65-1.75,19.35,113.69h40.49l9.55-135.21,5.65-1.75,10,137h53.54l18.85-188ZM876.26,532.81l-.37-10.72,37.05-.44.34-11.68-37.83-.47-.38-10.85,49.84-1.17.41-12.81H858.08l-2,62.18h70.48l-.5-12.84ZM541,509.94l-.79,11.64,18.7.62L558.68,534l-39.13-1.14,1.7-34.12,53.81-1.24-.77-12.84H504.78l-6.24,62.18h79.2l-2-37.51Zm490.57,4.82-51.36-8.69.22-6.73,49.14-1.83-1.24-12.84H965.17l-3.23,32.23,52.22,9.08.24,5.92L960.06,534l-1.33,12.84h76ZM822,546.85l-6.23-62.18H797.85l-25.71,29.64-25.71-29.64h-17.9l-6.23,62.18h21l2-40.34L772.14,534l26.8-27.5,2,40.34ZM733.63,257H691.55l-3.83,192.3h50.84ZM864,407.42l-46.42,1.5L816,295.82l48.55,1.47ZM904.68,257H773.51L768.4,449.25H914Zm156.86,42L1056.85,257H927.61l1.1,37.48L970,295.87l4.24,153.38h50.93l-15.23-152Zm-499.65-2.74,40.55-1.36,4.62,38.31-46.8,22.11Zm47.37,153h55.21l-36-86.31,28.71-15.68L637.59,257h-141L492,298.62l31.53-1.05-15.2,151.68h49.34L559,400.9l35.56-19.42Zm26.85,69.58,4.28-20.35,20.52-.93L665.2,518Zm35.17,28h21.28l-16.84-62.19H625.78l-16.84,62.19h21.28l3.3-15.69,34.55.45Z" transform="translate(-138.46 -253.15)"/></svg>